<svg width="270" height="50" viewBox="0 0 270 50" fill="none" xmlns="http://www.w3.org/2000/svg">
<path d="M53.2092 36.2448C52.3325 43.0769 47.2043 48.5691 40.5707 50H0.0247803V27.9735C0.843639 29.4458 1.8941 30.7775 3.13479 31.919C6.03802 34.5989 9.95034 36.2448 14.2597 36.2448H53.2092Z" fill="#073784"/>
<path d="M0.0247803 13.7552H38.9661C43.2754 13.7552 47.1877 15.3929 50.0909 18.0728C51.3316 19.2142 52.3821 20.5459 53.201 22.0182V0H13.0686C6.25307 1.27378 0.951166 6.82382 0.0247803 13.7552Z" fill="#073784"/>
<path d="M53.1845 31.9189H16.0794C8.46981 31.9189 2.09264 26.799 0.355666 19.8925C0.215054 19.3383 0.107526 18.7676 0.0248129 18.1886C0.0165416 18.1141 0.0082713 18.048 0 17.9735H37.1547C45.335 17.9735 52.1009 24.0446 53.1927 31.9189H53.1845Z" fill="#0FA8E4"/>
<path d="M74.6402 35.9916C70.7092 35.9916 67.5628 34.8696 65.2092 32.6173L68.1111 28.5092C69.9838 30.3819 72.2445 31.3098 74.9017 31.3098C75.8381 31.3098 76.572 31.1495 77.1203 30.8121C77.6602 30.4831 77.9301 30.0613 77.9301 29.5552C77.9301 29.1081 77.6348 28.7454 77.0359 28.4586C76.437 28.1718 75.6947 27.9609 74.8089 27.8175C73.9148 27.6825 72.9531 27.4547 71.9071 27.1511C70.8695 26.8474 69.8994 26.4846 69.0052 26.0713C68.1111 25.658 67.3687 24.9915 66.7782 24.0805C66.1793 23.1695 65.8841 22.0728 65.8841 20.7991C65.8841 18.9264 66.6433 17.3405 68.1617 16.0161C69.6801 14.7001 71.7468 14.0422 74.3618 14.0422C77.8204 14.0422 80.7054 15.0291 82.9999 17.0031L80.0052 20.9256C78.2169 19.4578 76.1502 18.7239 73.7882 18.7239C72.2614 18.7239 71.4937 19.23 71.4937 20.2508C71.4937 20.6557 71.789 21.0015 72.3879 21.2883C72.9784 21.5751 73.7292 21.7945 74.6149 21.9379C75.5091 22.0897 76.4707 22.3175 77.4999 22.6211C78.529 22.9333 79.4907 23.296 80.3848 23.7178C81.279 24.1396 82.0213 24.7975 82.6118 25.6917C83.2023 26.5859 83.506 27.6488 83.506 28.8804C83.506 31.0483 82.7299 32.7692 81.1778 34.0598C79.6256 35.342 77.4493 35.9916 74.6486 35.9916H74.6402Z" fill="#073784"/>
<path d="M98.4791 35.6035H86.0535V14.3458H98.0995C100.073 14.3458 101.609 14.8857 102.688 15.957C103.768 17.0283 104.317 18.3021 104.317 19.7615C104.317 21.0352 103.971 22.1066 103.279 22.9839C102.587 23.8527 101.718 24.4095 100.681 24.6372C101.828 24.8059 102.79 25.388 103.566 26.375C104.342 27.3619 104.73 28.5176 104.73 29.8336C104.73 31.4701 104.19 32.8366 103.102 33.9417C102.022 35.0467 100.478 35.5951 98.4791 35.5951V35.6035ZM96.851 22.503C97.3993 22.503 97.8548 22.3428 98.2091 22.0053C98.5634 21.6763 98.7322 21.2461 98.7322 20.7147C98.7322 20.1832 98.555 19.7868 98.2091 19.4578C97.8548 19.1288 97.4078 18.9601 96.851 18.9601H91.5282V22.4946H96.851V22.503ZM97.045 30.9808C97.703 30.9808 98.2176 30.8036 98.5887 30.4578C98.9599 30.1035 99.1455 29.648 99.1455 29.0743C99.1455 28.5007 98.9599 28.0621 98.5887 27.7078C98.2176 27.3451 97.703 27.1679 97.045 27.1679H91.5282V30.9892H97.045V30.9808Z" fill="#073784"/>
<path d="M111.731 35.9915C109.285 35.9915 107.345 35.3504 105.902 34.0767L108.197 29.901C109.192 30.7277 110.213 31.1411 111.259 31.1411C112.128 31.1411 112.82 30.8796 113.334 30.3566C113.84 29.8336 114.102 29.1334 114.102 28.2392V14.3458H119.585V28.3067C119.585 30.8543 118.885 32.7691 117.485 34.0598C116.084 35.342 114.169 35.9915 111.748 35.9915H111.731Z" fill="#073784"/>
<path d="M156.094 35.6204H150.611V21.7945L145.229 35.6204H142.808L137.452 21.7945V35.6204H131.968V14.3627H139.586L144.014 25.8942L148.477 14.3627H156.094V35.6204Z" fill="#0FA8E4"/>
<path d="M175.505 35.6204H159.924V14.3627H175.505V19.1457H165.407V22.4609H175.285V27.2439H165.407V30.8459H175.505V35.6289V35.6204Z" fill="#0FA8E4"/>
<path d="M187.643 35.6204H178.693V14.3627H187.618C191.018 14.3627 193.784 15.316 195.919 17.2308C198.053 19.1457 199.124 21.727 199.124 24.9747C199.124 28.2224 198.053 30.8121 195.919 32.7355C193.784 34.6588 191.026 35.6204 187.652 35.6204H187.643ZM187.61 30.8374C189.415 30.8374 190.849 30.2723 191.912 29.1335C192.975 27.9946 193.506 26.6112 193.506 24.9747C193.506 23.2538 193 21.8535 191.979 20.7654C190.959 19.6856 189.516 19.1373 187.643 19.1373H184.168V30.829H187.61V30.8374Z" fill="#0FA8E4"/>
<path d="M207.332 35.6204H201.849V14.3627H207.332V35.6204Z" fill="#0FA8E4"/>
<path d="M221.58 36C218.29 36 215.548 34.9793 213.355 32.921C211.17 30.8712 210.073 28.2308 210.073 25C210.073 21.7692 211.162 19.1035 213.338 17.0621C215.514 15.0207 218.264 14 221.571 14C225.84 14 228.935 15.898 230.842 19.7025L226.126 21.9294C225.764 21.0606 225.165 20.3267 224.33 19.7278C223.486 19.1373 222.575 18.8336 221.571 18.8336C219.85 18.8336 218.433 19.4241 217.32 20.6051C216.206 21.786 215.649 23.2454 215.649 24.9831C215.649 26.7209 216.206 28.1887 217.32 29.3612C218.433 30.5422 219.85 31.1327 221.571 31.1327C222.567 31.1327 223.486 30.8374 224.33 30.2385C225.165 29.648 225.772 28.9141 226.126 28.0368L230.842 30.2638C230.032 31.875 228.868 33.2331 227.35 34.3298C225.831 35.4264 223.899 35.9747 221.563 35.9747L221.58 36Z" fill="#0FA8E4"/>
<path d="M253.601 35.6204H247.384L246.33 32.5583H237.953L236.899 35.6204H230.682L238.679 14.3627H245.562L253.593 35.6204H253.601ZM244.837 27.7838L242.129 19.7868L239.421 27.7838H244.837Z" fill="#0FA8E4"/>
<path d="M269.182 35.6204H255.162V14.3627H260.645V30.8374H269.182V35.6204Z" fill="#0FA8E4"/>
</svg>
