<svg width="270" height="50" viewBox="0 0 270 50" fill="none" xmlns="http://www.w3.org/2000/svg">
<path d="M53.2092 36.2449C52.3325 43.077 47.2043 48.5692 40.5707 50.0001H0.0247803V27.9736C0.843639 29.4459 1.8941 30.7776 3.13479 31.919C6.03802 34.5989 9.95034 36.2449 14.2597 36.2449H53.2092Z" fill="#073784"/>
<path d="M0.0247803 13.7552H38.9661C43.2754 13.7552 47.1877 15.3929 50.0909 18.0728C51.3316 19.2142 52.3821 20.5459 53.201 22.0182V0H13.0686C6.25307 1.27378 0.951166 6.82382 0.0247803 13.7552Z" fill="#073784"/>
<path d="M53.1845 31.919H16.0794C8.46981 31.919 2.09264 26.7991 0.355666 19.8926C0.215054 19.3384 0.107526 18.7677 0.0248129 18.1887C0.0165416 18.1142 0.0082713 18.0481 0 17.9736H37.1547C45.335 17.9736 52.1009 24.0448 53.1927 31.919H53.1845Z" fill="#0FA8E4"/>
<path d="M74.6402 35.9914C70.7092 35.9914 67.5628 34.8695 65.2092 32.6172L68.1111 28.509C69.9838 30.3817 72.2445 31.3096 74.9017 31.3096C75.8381 31.3096 76.572 31.1494 77.1203 30.8119C77.6602 30.483 77.9301 30.0612 77.9301 29.555C77.9301 29.1079 77.6348 28.7452 77.0359 28.4584C76.437 28.1716 75.6947 27.9607 74.8089 27.8173C73.9148 27.6823 72.9531 27.4546 71.9071 27.1509C70.8695 26.8472 69.8994 26.4845 69.0052 26.0711C68.1111 25.6578 67.3687 24.9914 66.7782 24.0803C66.1793 23.1693 65.8841 22.0727 65.8841 20.7989C65.8841 18.9262 66.6433 17.3403 68.1617 16.0159C69.6801 14.7 71.7468 14.042 74.3618 14.042C77.8204 14.042 80.7054 15.029 82.9999 17.0029L80.0052 20.9254C78.2169 19.4576 76.1502 18.7237 73.7882 18.7237C72.2614 18.7237 71.4937 19.2299 71.4937 20.2506C71.4937 20.6555 71.789 21.0014 72.3879 21.2882C72.9784 21.575 73.7292 21.7943 74.6149 21.9377C75.5091 22.0895 76.4707 22.3173 77.4999 22.621C78.529 22.9331 79.4907 23.2958 80.3848 23.7176C81.279 24.1394 82.0213 24.7974 82.6118 25.6915C83.2023 26.5857 83.506 27.6486 83.506 28.8802C83.506 31.0481 82.7299 32.769 81.1778 34.0596C79.6256 35.3418 77.4493 35.9914 74.6486 35.9914H74.6402Z" fill="white"/>
<path d="M98.4791 35.6034H86.0535V14.3457H98.0995C100.073 14.3457 101.609 14.8856 102.688 15.9569C103.768 17.0282 104.317 18.302 104.317 19.7613C104.317 21.0351 103.971 22.1064 103.279 22.9837C102.587 23.8526 101.718 24.4094 100.681 24.6371C101.828 24.8058 102.79 25.3879 103.566 26.3748C104.342 27.3618 104.73 28.5175 104.73 29.8334C104.73 31.4699 104.19 32.8365 103.102 33.9416C102.022 35.0466 100.478 35.5949 98.4791 35.5949V35.6034ZM96.851 22.5029C97.3993 22.5029 97.8548 22.3426 98.2091 22.0052C98.5634 21.6762 98.7322 21.246 98.7322 20.7146C98.7322 20.1831 98.555 19.7867 98.2091 19.4577C97.8548 19.1287 97.4078 18.96 96.851 18.96H91.5282V22.4945H96.851V22.5029ZM97.045 30.9807C97.703 30.9807 98.2176 30.8035 98.5887 30.4577C98.9599 30.1034 99.1455 29.6479 99.1455 29.0742C99.1455 28.5006 98.9599 28.062 98.5887 27.7077C98.2176 27.3449 97.703 27.1678 97.045 27.1678H91.5282V30.9891H97.045V30.9807Z" fill="white"/>
<path d="M111.731 35.9914C109.285 35.9914 107.345 35.3503 105.902 34.0765L108.197 29.9009C109.192 30.7276 110.213 31.141 111.259 31.141C112.128 31.141 112.82 30.8795 113.334 30.3564C113.84 29.8334 114.102 29.1333 114.102 28.2391V14.3457H119.585V28.3066C119.585 30.8541 118.885 32.769 117.485 34.0597C116.084 35.3419 114.169 35.9914 111.748 35.9914H111.731Z" fill="white"/>
<path d="M156.094 35.6205H150.611V21.7945L145.229 35.6205H142.808L137.452 21.7945V35.6205H131.968V14.3628H139.586L144.014 25.8942L148.477 14.3628H156.094V35.6205Z" fill="white"/>
<path d="M175.505 35.6205H159.924V14.3628H175.505V19.1458H165.407V22.461H175.285V27.2439H165.407V30.8459H175.505V35.6289V35.6205Z" fill="white"/>
<path d="M187.643 35.6205H178.693V14.3628H187.618C191.018 14.3628 193.784 15.316 195.919 17.2309C198.053 19.1458 199.124 21.7271 199.124 24.9748C199.124 28.2225 198.053 30.8122 195.919 32.7355C193.784 34.6588 191.026 35.6205 187.652 35.6205H187.643ZM187.61 30.8375C189.415 30.8375 190.849 30.2723 191.912 29.1335C192.975 27.9947 193.506 26.6113 193.506 24.9748C193.506 23.2539 193 21.8536 191.979 20.7654C190.959 19.6856 189.516 19.1373 187.643 19.1373H184.168V30.8291H187.61V30.8375Z" fill="white"/>
<path d="M207.332 35.6205H201.849V14.3628H207.332V35.6205Z" fill="white"/>
<path d="M221.58 36C218.29 36 215.548 34.9793 213.355 32.921C211.17 30.8712 210.073 28.2308 210.073 25C210.073 21.7692 211.162 19.1035 213.338 17.0621C215.514 15.0207 218.264 14 221.571 14C225.84 14 228.935 15.898 230.842 19.7025L226.126 21.9294C225.764 21.0606 225.165 20.3267 224.33 19.7278C223.486 19.1373 222.575 18.8336 221.571 18.8336C219.85 18.8336 218.433 19.4241 217.32 20.6051C216.206 21.786 215.649 23.2454 215.649 24.9831C215.649 26.7209 216.206 28.1887 217.32 29.3612C218.433 30.5422 219.85 31.1327 221.571 31.1327C222.567 31.1327 223.486 30.8374 224.33 30.2385C225.165 29.648 225.772 28.9141 226.126 28.0368L230.842 30.2638C230.032 31.875 228.868 33.2331 227.35 34.3298C225.831 35.4264 223.899 35.9747 221.563 35.9747L221.58 36Z" fill="white"/>
<path d="M253.601 35.6205H247.384L246.33 32.5583H237.953L236.899 35.6205H230.682L238.679 14.3628H245.562L253.593 35.6205H253.601ZM244.837 27.7838L242.129 19.7869L239.421 27.7838H244.837Z" fill="white"/>
<path d="M269.182 35.6205H255.162V14.3628H260.645V30.8375H269.182V35.6205Z" fill="white"/>
</svg>
