<svg width="70" height="52" viewBox="0 0 70 52" fill="none" xmlns="http://www.w3.org/2000/svg">
<path d="M8.04102 5.83008H61.6976C62.3208 5.83008 62.8266 6.33592 62.8266 6.95911V35.2774C62.8266 35.9006 62.3208 36.4064 61.6976 36.4064H8.04102C7.41783 36.4064 6.91199 35.9006 6.91199 35.2774V6.95911C6.91199 6.33592 7.41783 5.83008 8.04102 5.83008ZM42.9175 43.9665C42.2943 43.9665 41.7884 43.4606 41.7884 42.8374C41.7884 42.2143 42.2943 41.7084 42.9175 41.7084H47.3109C47.9341 41.7084 48.4399 42.2143 48.4399 42.8374C48.4399 43.4606 47.9341 43.9665 47.3109 43.9665H42.9175ZM22.69 43.9665C22.0668 43.9665 21.561 43.4606 21.561 42.8374C21.561 42.2143 22.0668 41.7084 22.69 41.7084H27.0826C27.7057 41.7084 28.2116 42.2143 28.2116 42.8374C28.2116 43.4606 27.7057 43.9665 27.0826 43.9665H22.69ZM32.8042 43.9665C32.181 43.9665 31.6751 43.4606 31.6751 42.8374C31.6751 42.2143 32.181 41.7084 32.8042 41.7084H37.1976C37.8208 41.7084 38.3266 42.2143 38.3266 42.8374C38.3266 43.4606 37.8208 43.9665 37.1976 43.9665H32.8042ZM58.8368 38.8485C59.9356 38.8485 60.9313 39.2957 61.6541 40.0166C62.3795 40.7439 62.8266 41.7404 62.8266 42.8383C62.8266 43.9389 62.3795 44.9382 61.6585 45.6591L61.5856 45.7258C60.8691 46.4077 59.9009 46.8273 58.8368 46.8273C57.7389 46.8273 56.7423 46.3801 56.0196 45.6591C55.2941 44.9382 54.847 43.9398 54.847 42.8383C54.847 41.7404 55.2941 40.7438 56.0151 40.0211C56.7423 39.2957 57.7389 38.8485 58.8368 38.8485ZM60.0636 41.6115C59.7516 41.3004 59.3169 41.1066 58.8368 41.1066C58.3559 41.1066 57.922 41.3004 57.61 41.6115C57.2988 41.9236 57.105 42.3574 57.105 42.8383C57.105 43.3166 57.2988 43.7496 57.6118 44.0625C57.922 44.3754 58.3559 44.5692 58.8368 44.5692C59.2938 44.5692 59.7098 44.3932 60.0192 44.1078L60.0619 44.0625C60.3748 43.7496 60.5686 43.3157 60.5686 42.8383C60.5686 42.3574 60.3748 41.9236 60.0636 41.6115ZM11.0227 38.8485C12.1242 38.8485 13.1226 39.2957 13.8435 40.0166L13.9102 40.0895C14.5921 40.8061 15.0117 41.7751 15.0117 42.8383C15.0117 43.9398 14.5645 44.9382 13.8435 45.6591C13.1226 46.3801 12.1233 46.8273 11.0227 46.8273C9.92393 46.8273 8.92825 46.3801 8.20549 45.6591C7.48006 44.9382 7.03289 43.9398 7.03289 42.8383C7.03289 41.7404 7.48006 40.7438 8.20104 40.0211C8.92202 39.2957 9.92126 38.8485 11.0227 38.8485ZM12.2469 41.6133C11.934 41.3004 11.501 41.1066 11.0227 41.1066C10.5445 41.1066 10.1106 41.3004 9.79769 41.6133C9.48476 41.9236 9.29096 42.3574 9.29096 42.8383C9.29096 43.3166 9.48476 43.7496 9.79769 44.0625C10.108 44.3754 10.5427 44.5692 11.0227 44.5692C11.5001 44.5692 11.934 44.3754 12.2469 44.0625C12.5598 43.7496 12.7536 43.3166 12.7536 42.8383C12.7536 42.3805 12.5776 41.9653 12.2922 41.6569L12.2469 41.6133ZM16.6039 22.2473C15.9807 22.2473 15.4749 21.7414 15.4749 21.1182C15.4749 20.4951 15.9807 19.9892 16.6039 19.9892H18.8202L20.2612 17.9765C20.624 17.4707 21.3298 17.3533 21.8357 17.716C21.9601 17.8058 22.0615 17.9161 22.1379 18.0387L22.514 18.565L24.5453 11.4619C24.7151 10.8636 25.3401 10.516 25.9384 10.6858C26.3278 10.796 26.6105 11.0992 26.7145 11.4619L30.9782 26.366L32.5668 20.8098C32.7366 20.2115 33.3616 19.8639 33.9599 20.0337L34.0408 20.0594C34.2595 20.1208 34.5039 20.1795 34.7671 20.2319L34.8053 20.2399C35.8935 20.4506 36.9371 20.4346 37.755 20.1421C38.4476 19.8941 38.9756 19.4211 39.1916 18.6833C39.8948 16.2927 40.5492 13.8622 41.2337 11.4619C41.4035 10.8636 42.0285 10.516 42.6267 10.6858C43.0161 10.796 43.2988 11.0992 43.4029 11.4619L47.6665 26.366L49.2551 20.8098C49.3956 20.3146 49.8481 19.991 50.3397 19.991L53.1365 19.9892C53.7597 19.9892 54.2656 20.4951 54.2656 21.1182C54.2656 21.7414 53.7597 22.2473 53.1365 22.2473H51.1896L48.7511 30.7746C48.6471 31.1373 48.3644 31.4404 47.975 31.5507C47.3767 31.7205 46.7517 31.3729 46.5819 30.7746L42.32 15.8776L41.4515 18.9242L41.3519 19.318C40.9092 20.8293 39.87 21.7832 38.5142 22.2686C37.323 22.6944 35.889 22.738 34.439 22.466L32.0627 30.7746C31.9587 31.1373 31.676 31.4404 31.2866 31.5507C30.6883 31.7205 30.0634 31.3729 29.8936 30.7746L25.6299 15.8705L24.0413 21.4267C23.9719 21.6641 23.8261 21.881 23.6092 22.0357C23.1034 22.3957 22.3993 22.2766 22.0392 21.7708L21.1805 20.5697L20.3377 21.7468C20.135 22.049 19.7901 22.2473 19.3998 22.2473H16.6039ZM4.36411 0H65.6359C66.8316 0 67.9233 0.49073 68.7145 1.28105C69.5102 2.07849 70 3.16929 70 4.36411V47.166C70 48.3626 69.5093 49.4525 68.719 50.2437C67.9215 51.0394 66.8307 51.5292 65.6359 51.5292H4.36411C3.1684 51.5292 2.07671 51.0385 1.2855 50.2482C0.48984 49.4507 0 48.3617 0 47.166V4.36411C0 3.1684 0.490729 2.07671 1.28105 1.2855C2.07849 0.48984 3.16929 0 4.36411 0ZM65.6359 2.25807H4.36411C3.78359 2.25807 3.25641 2.49454 2.8777 2.87326C2.49454 3.25642 2.25806 3.78359 2.25806 4.36411V47.166C2.25806 47.7465 2.49454 48.2728 2.87325 48.6515C3.25641 49.0347 3.78359 49.2712 4.36411 49.2712H65.6359C66.2164 49.2712 66.7436 49.0347 67.1223 48.656C67.5055 48.2728 67.7419 47.7465 67.7419 47.166V4.36411C67.7419 3.78359 67.5055 3.25641 67.1267 2.8777C66.7436 2.49454 66.2164 2.25807 65.6359 2.25807ZM60.5686 8.08814H9.17006V34.1483H60.5686V8.08814Z" fill="#1464C0"/>
</svg>
