<svg width="59" height="70" viewBox="0 0 59 70" fill="none" xmlns="http://www.w3.org/2000/svg">
<path d="M21.4943 54.7064V57.1773H37.2931V54.7064C34.2979 53.5078 24.4895 53.5078 21.4943 54.7064ZM45.3048 22.7339C47.4764 23.6323 48.0752 24.9801 48.5995 27.1517C48.9736 28.8736 46.4279 29.4725 46.0538 27.7505C45.7544 26.5528 45.6043 25.7291 44.3318 25.2049C44.0324 25.579 43.733 25.9539 43.5082 26.328C41.8609 28.4249 41.5614 28.799 41.5614 32.6925C41.4868 34.0403 41.1873 35.5375 40.4384 36.7361C42.2358 37.335 45.0808 38.7575 45.9792 40.3301C46.8028 41.8273 44.5566 43.1752 43.6583 41.678C42.8346 40.2555 39.0905 38.9076 37.4432 38.8329C32.1271 38.8329 26.9604 38.9076 21.6444 38.8329C20.0717 38.8329 16.1782 40.2555 15.3546 41.678C14.5309 43.1752 12.2101 41.8281 13.1084 40.3301C14.0067 38.8329 16.7025 37.4096 18.4244 36.8107C17.7509 35.7623 17.2267 33.8902 17.2267 32.6925C17.2267 28.799 16.9272 28.4249 15.3546 26.328C15.0552 25.9539 14.7557 25.579 14.4563 25.2049C13.1831 25.7291 13.1084 26.5528 12.809 27.7505C12.3594 29.4725 9.81378 28.8736 10.1887 27.1517C10.7129 24.9801 11.3118 23.6323 13.4833 22.7339C13.4833 21.6108 12.8097 17.043 11.2371 16.8937C10.3388 16.819 10.114 20.3376 10.114 20.8619C10.114 21.3114 9.88923 21.6855 9.51512 21.985C9.44046 21.985 5.0974 24.6052 5.0974 28.4995C5.02274 29.8474 5.62162 31.8688 6.81938 32.5431C8.24192 33.2167 8.24192 34.3406 6.96949 35.2389C2.10222 38.2341 0.97913 42.427 5.47229 46.4706C6.59538 45.4222 8.16803 44.3738 9.59056 43.8503C11.2379 43.3261 12.1362 45.7971 10.4889 46.3213C9.06635 46.8455 5.02274 49.6159 5.77173 51.2632C7.19426 54.0336 13.4094 57.0288 16.2545 55.6809C17.7517 54.9319 17.677 53.0606 21.1964 52.0122C19.6992 50.9638 18.426 49.766 18.1266 49.2418C17.3029 47.7446 19.5491 46.4714 20.4474 47.9686C20.9716 48.9424 24.5657 51.1131 25.8389 51.3379C28.1597 51.1878 30.6307 51.1878 33.027 51.3379C34.3002 51.1131 37.8188 48.9416 38.4185 47.9686C39.2421 46.4714 41.563 47.7438 40.6647 49.2418C40.3652 49.766 39.092 50.9638 37.5948 52.0122C41.1142 53.0606 40.9641 54.8573 42.5368 55.6809C45.3818 57.1035 51.597 54.0336 53.0195 51.2632C53.3189 50.6643 53.0195 50.2148 52.7201 49.6906C51.9711 48.5675 49.6502 46.7701 48.377 46.3213C46.7297 45.7971 47.5534 43.3261 49.2007 43.8503C50.6979 44.3745 52.1959 45.423 53.3189 46.4706C57.8113 42.427 56.6882 38.2341 51.8217 35.2389C50.4739 34.3406 50.6987 33.2175 51.8964 32.6186C53.1696 31.945 53.7685 29.8482 53.7685 28.5003C53.6938 24.9062 50.0243 22.4353 49.4254 22.0612C48.9759 21.8364 48.6765 21.3876 48.6765 20.8634C48.6765 20.3392 48.5263 16.8952 47.5534 16.8952C45.9792 17.043 45.3795 21.5354 45.3048 22.7339ZM55.0386 48.4912C55.7121 49.7645 56.2363 50.8121 55.4127 52.3847C53.3158 56.503 45.6035 60.0224 41.4106 58.0757C40.8117 57.7762 40.4368 57.4021 39.9134 56.8779V68.7085C39.9134 70.4305 37.2931 70.4305 37.2931 68.7085V65.8634H21.4943V68.7085C21.4943 70.4305 18.874 70.4305 18.874 68.7085V56.8025C18.4999 57.3267 18.125 57.7008 17.4515 58.0002C13.2585 60.0971 5.47151 56.503 3.44932 52.3847C2.62566 50.8121 2.9251 49.9884 3.74876 48.4912C-1.41795 43.7741 -1.26784 38.0832 4.34764 33.8156C2.99977 32.393 2.40089 30.3716 2.40089 28.4241C2.47555 24.2311 6.06961 21.236 7.49215 20.1875C7.56681 18.1661 8.09103 15.1709 10.2626 14.4219C9.66367 13.673 8.98935 12.8493 8.1657 11.951C7.71615 11.5769 7.64148 10.9772 7.94092 10.4538C10.3372 5.28708 17.8994 1.24424 23.2155 0.0457039C23.8144 -0.104405 24.4132 0.12037 24.638 0.644584L28.2321 6.5595C29.1304 6.63417 29.8794 6.63417 30.7777 6.5595L34.3718 0.644584C34.6712 0.12037 35.2701 -0.104405 35.869 0.0457039C41.185 1.24346 48.748 5.36174 51.1435 10.5284C51.3683 11.0527 51.2182 11.5769 50.9188 11.951C50.0204 12.8493 49.3461 13.673 48.6726 14.4966C50.694 15.3203 51.2182 18.2408 51.3683 20.1875C52.7908 21.236 56.3102 24.2311 56.3849 28.4241C56.3849 30.3708 55.786 32.3923 54.5128 33.8156C60.056 38.0832 60.2053 43.7741 55.0386 48.4912ZM21.4943 63.2424H37.2931V59.7984H21.4943V63.2424ZM21.5689 23.1827L22.0185 30.1461C24.7889 30.0714 27.3345 31.1198 29.5061 32.8418C31.6776 31.1945 34.2232 30.0714 36.9936 30.1461L37.4432 23.1827C32.1264 20.6371 26.885 20.6371 21.5689 23.1827ZM39.9888 24.606L39.8387 26.9269C40.2882 26.1032 42.3843 23.4829 42.9832 22.7339C42.5344 23.0334 40.513 25.579 39.9888 24.606ZM38.9404 32.6178C38.6409 32.8426 38.3415 32.9172 37.9666 32.8426C35.1215 32.393 32.5005 33.6662 30.4044 35.5383C29.8802 35.9879 29.1312 35.9879 28.6824 35.5383C26.5855 33.6662 23.9652 32.3938 21.1202 32.8426C20.596 32.9172 20.2219 32.8426 19.847 32.4685C19.847 33.7417 20.2965 35.8378 21.7191 36.2126C26.8858 36.2873 31.977 36.2873 37.0691 36.2126C38.4916 35.837 38.9404 33.8902 38.9404 32.6178ZM19.2481 27.4511L19.0233 24.606C17.6754 25.4297 16.8518 23.7077 16.1782 22.8086C16.1782 23.3328 18.7239 26.328 19.2481 27.4511ZM18.6492 21.7602C25.8373 17.6419 33.1756 17.6419 40.3637 21.7602C43.1341 17.9413 45.1555 14.3473 48.3008 10.9033C45.9799 7.08449 40.3637 4.01465 36.0961 2.81689L32.7268 8.50781C32.502 8.80725 32.1279 9.10669 31.6784 9.10669C30.1057 9.33146 28.9826 9.33146 27.4108 9.10669C26.9612 9.10669 26.5871 8.88191 26.3623 8.50781L22.9184 2.81689C18.7254 4.01465 13.0345 7.08449 10.7137 10.9033C13.9321 14.3473 15.9535 17.9413 18.6492 21.7602Z" fill="#1464C0"/>
</svg>
