<svg width="70" height="70" viewBox="0 0 70 70" fill="none" xmlns="http://www.w3.org/2000/svg">
<path d="M69.5785 29.9266C69.5428 29.7005 69.4437 29.4891 69.2927 29.3171C69.1417 29.145 68.945 29.0193 68.7254 28.9545L63.9648 27.5593C63.2653 24.8247 62.1764 22.2047 60.7315 19.7799L63.1436 15.4223C63.2562 15.2185 63.3075 14.9865 63.2911 14.7542C63.2748 14.5219 63.1917 14.2993 63.0516 14.1132C61.0177 11.3916 58.6029 8.9768 55.8813 6.94289C55.6954 6.80419 55.4734 6.72217 55.242 6.7067C55.0105 6.69123 54.7796 6.74297 54.5769 6.8557L50.2193 9.26771C47.7946 7.82331 45.1751 6.73441 42.441 6.03432L41.0447 1.25022C40.9805 1.03021 40.8549 0.833035 40.6828 0.681749C40.5106 0.530462 40.299 0.431323 40.0725 0.395926C36.7026 -0.131975 33.271 -0.131975 29.901 0.395926C29.6746 0.431323 29.4629 0.530462 29.2907 0.681749C29.1186 0.833035 28.9931 1.03021 28.9289 1.25022L27.5325 6.03432C24.7984 6.73441 22.179 7.82331 19.7543 9.26771L15.3967 6.8557C15.2022 6.75105 14.983 6.70085 14.7624 6.71039C14.5417 6.71993 14.3277 6.78886 14.1429 6.9099C13.9243 7.0342 13.75 7.22368 13.6443 7.45189C13.5386 7.68009 13.5068 7.9356 13.5534 8.18273C13.6 8.42986 13.7227 8.65627 13.9042 8.83031C14.0857 9.00435 14.3171 9.11734 14.566 9.15349L19.1992 11.7188C19.3878 11.8226 19.6007 11.8742 19.8159 11.8684C20.0311 11.8626 20.2408 11.7996 20.4235 11.6858C22.9902 10.0719 25.8095 8.90002 28.7639 8.2191C28.9734 8.17136 29.1663 8.06852 29.3227 7.92121C29.4791 7.77391 29.5933 7.58748 29.6535 7.38124L31.0274 2.67255C33.6556 2.32613 36.3178 2.32613 38.9459 2.67255L40.3201 7.38124C40.3803 7.58749 40.4945 7.77391 40.6509 7.92121C40.8073 8.06851 41.0003 8.17133 41.2098 8.21905C44.1642 8.9 46.9834 10.0718 49.55 11.6858C49.7331 11.7988 49.9427 11.8614 50.1577 11.8672C50.3728 11.8729 50.5855 11.8218 50.7743 11.7188L55.0565 9.34913C57.1382 10.984 59.0158 12.8632 60.6489 14.9463L58.2804 19.2248C58.1761 19.4132 58.1241 19.6262 58.1299 19.8415C58.1357 20.0568 58.1991 20.2666 58.3134 20.4491C59.9274 23.0158 61.0992 25.835 61.7801 28.7895C61.8278 28.9988 61.9305 29.1917 62.0775 29.348C62.2246 29.5044 62.4108 29.6187 62.6168 29.6792L67.3019 31.0519C67.646 33.6794 67.646 36.3406 67.3019 38.9681L62.6215 40.3208C62.4141 40.3809 62.2265 40.4954 62.0783 40.6525C61.9302 40.8095 61.8268 41.0035 61.779 41.214C61.1023 44.1763 59.9307 47.0032 58.3135 49.5756C58.199 49.7586 58.1357 49.9689 58.1301 50.1846C58.1245 50.4003 58.1769 50.6136 58.2817 50.8023L60.6491 55.0597C59.0194 57.1456 57.1404 59.0241 55.0541 60.6533L50.7695 58.3037C50.5817 58.2 50.3694 58.1486 50.1549 58.1548C49.9404 58.161 49.7315 58.2246 49.5499 58.339C46.9759 59.9446 44.1554 61.1162 41.2013 61.8069C40.9938 61.8561 40.803 61.9593 40.6482 62.106C40.4934 62.2527 40.3801 62.4377 40.3199 62.6423L38.9471 67.3275C36.3182 67.6739 33.6552 67.6739 31.0263 67.3275L29.6535 62.6424C29.5933 62.4378 29.48 62.2527 29.3252 62.106C29.1704 61.9593 28.9796 61.8561 28.7721 61.8069C25.818 61.1162 22.9975 59.9446 20.4235 58.3391C20.2416 58.2255 20.0328 58.1624 19.8185 58.1561C19.6042 58.1499 19.3922 58.2008 19.2041 58.3037L14.9195 60.6533C12.8332 59.0241 10.9543 57.1456 9.32466 55.0597L11.6921 50.8023C11.7969 50.6137 11.8492 50.4004 11.8436 50.1846C11.838 49.9689 11.7747 49.7586 11.6602 49.5756C10.043 47.0032 8.87143 44.1763 8.1948 41.214C8.14696 41.0035 8.04358 40.8096 7.89541 40.6525C7.74725 40.4954 7.5597 40.3809 7.35228 40.3209L2.67188 38.9681C2.32779 36.3406 2.32779 33.6795 2.67188 31.052L7.35681 29.6791C7.56283 29.6187 7.74898 29.5044 7.89605 29.348C8.04313 29.1916 8.14579 28.9988 8.19344 28.7894C8.87439 25.835 10.0462 23.0158 11.6602 20.4492C11.7745 20.2666 11.8379 20.0568 11.8437 19.8415C11.8495 19.6262 11.7975 19.4132 11.6932 19.2248L9.1267 14.5892C9.08517 14.367 8.98271 14.1607 8.83074 13.9933C8.67877 13.826 8.48327 13.7042 8.26608 13.6415C8.04889 13.5788 7.81855 13.5777 7.60076 13.6383C7.38298 13.6989 7.18633 13.8188 7.03276 13.9847C6.84754 14.1699 6.72758 14.4103 6.69101 14.6696C6.65444 14.9289 6.70324 15.1931 6.83005 15.4223L9.2421 19.7799C7.7972 22.2048 6.70828 24.8247 6.00872 27.5593L1.24817 28.9545C1.02859 29.0193 0.831888 29.145 0.680884 29.3171C0.529881 29.4892 0.430771 29.7005 0.395058 29.9267C-0.131686 33.2959 -0.131686 36.7266 0.395058 40.0958C0.430325 40.3231 0.529803 40.5356 0.681779 40.7082C0.833755 40.8809 1.0319 41.0065 1.25288 41.0703L6.00753 42.4443C6.70438 45.1858 7.79344 47.8123 9.24099 50.2425L6.83125 54.5765C6.71819 54.7798 6.66627 55.0114 6.68174 55.2434C6.69721 55.4755 6.77941 55.6981 6.91845 55.8845C8.9477 58.6124 11.3649 61.0288 14.0934 63.0571C14.2786 63.1949 14.4994 63.2766 14.7296 63.2924C14.9598 63.3083 15.1897 63.2577 15.392 63.1467L19.7519 60.7558C22.1812 62.1919 24.8004 63.2792 27.5325 63.9857L28.9289 68.7509C28.9937 68.9705 29.1194 69.1672 29.2914 69.3182C29.4635 69.4692 29.6749 69.5683 29.901 69.6041C33.271 70.132 36.7026 70.132 40.0725 69.6041C40.2987 69.5683 40.51 69.4692 40.6821 69.3182C40.8542 69.1672 40.9799 68.9705 41.0447 68.7509L42.441 63.9857C45.1732 63.2792 47.7924 62.1919 50.2217 60.7558L54.5816 63.1467C54.7842 63.2568 55.0139 63.3069 55.2439 63.291C55.4739 63.2751 55.6946 63.194 55.8801 63.0571C58.6087 61.0288 61.0259 58.6124 63.0551 55.8845C63.1942 55.6981 63.2764 55.4755 63.2918 55.2434C63.3073 55.0114 63.2554 54.7798 63.1423 54.5765L60.7326 50.2425C62.1801 47.8122 63.2692 45.1857 63.966 42.4442L68.7206 41.0702C68.9416 41.0064 69.1398 40.8808 69.2917 40.7081C69.4437 40.5355 69.5432 40.323 69.5785 40.0957C70.1052 36.7265 70.1052 33.2959 69.5785 29.9266Z" fill="#1464C0"/>
<path d="M34.9868 56.4796C39.2338 56.4797 43.3854 55.2203 46.9167 52.8608C50.4479 50.5013 53.2002 47.1477 54.8255 43.224C56.4508 39.3002 56.876 34.9827 56.0475 30.8173C55.219 26.6519 53.1739 22.8257 50.1708 19.8226C47.1677 16.8195 43.3415 14.7744 39.1761 13.9458C35.0107 13.1173 30.6932 13.5425 26.7695 15.1678C22.8457 16.793 19.4921 19.5453 17.1326 23.0765C14.7731 26.6078 13.5137 30.7594 13.5137 35.0064C13.5202 40.6995 15.7846 46.1575 19.8101 50.1831C23.8357 54.2087 29.2937 56.4731 34.9868 56.4796ZM31.3669 53.7116V42.2522C31.367 42.0937 31.3358 41.9368 31.2752 41.7904C31.2146 41.6439 31.1257 41.5109 31.0137 41.3988C30.9016 41.2867 30.7685 41.1979 30.6221 41.1373C30.4757 41.0766 30.3187 41.0455 30.1602 41.0456C28.5601 41.0456 27.0256 40.41 25.8942 39.2785C24.7627 38.1471 24.1271 36.6125 24.1271 35.0124C24.1271 33.4123 24.7627 31.8778 25.8942 30.7463C27.0256 29.6149 28.5601 28.9793 30.1602 28.9793C31.2316 28.9809 32.2828 29.2707 33.2036 29.8184C32.0222 31.2926 31.3748 33.1233 31.3669 35.0124C31.3669 35.3325 31.494 35.6394 31.7203 35.8657C31.9466 36.0919 32.2535 36.2191 32.5735 36.2191C32.8935 36.2191 33.2004 36.0919 33.4267 35.8657C33.653 35.6394 33.7801 35.3325 33.7801 35.0124C33.7801 33.8192 34.134 32.6527 34.7969 31.6606C35.4598 30.6684 36.4021 29.8952 37.5045 29.4385C38.6069 28.9819 39.82 28.8624 40.9903 29.0952C42.1606 29.328 43.2356 29.9026 44.0794 30.7463C44.9231 31.5901 45.4977 32.6651 45.7305 33.8354C45.9633 35.0057 45.8438 36.2188 45.3872 37.3212C44.9306 38.4236 44.1573 39.3659 43.1651 40.0288C42.173 40.6918 41.0065 41.0456 39.8133 41.0456C39.6548 41.0455 39.4979 41.0766 39.3514 41.1373C39.205 41.1979 39.0719 41.2867 38.9599 41.3988C38.8478 41.5109 38.7589 41.6439 38.6983 41.7904C38.6377 41.9368 38.6066 42.0937 38.6067 42.2522V53.7115C36.2166 54.1847 33.7569 54.1848 31.3669 53.7116ZM34.9868 15.9467C39.5112 15.9447 43.8887 17.553 47.3357 20.4838C50.7827 23.4145 53.0741 27.4763 53.7998 31.9422C54.5256 36.4081 53.6383 40.9865 51.2967 44.8579C48.9551 48.7293 45.3122 51.641 41.0199 53.0718V43.3729C42.2856 43.1947 43.4942 42.7316 44.5548 42.0183C45.6155 41.3051 46.5003 40.3605 47.1428 39.2555C47.7853 38.1506 48.1685 36.9143 48.2637 35.6397C48.3589 34.3651 48.1636 33.0856 47.6924 31.8975C47.2212 30.7094 46.4864 29.6438 45.5435 28.7809C44.6006 27.918 43.4742 27.2805 42.2491 26.9162C41.0239 26.552 39.7321 26.4706 38.471 26.6782C37.2098 26.8858 36.0122 27.3769 34.9685 28.1146C33.5639 27.1147 31.8844 26.5737 30.1602 26.566C28.0248 26.5661 25.9686 27.375 24.4055 28.83C22.8425 30.2849 21.8885 32.2779 21.7356 34.4079C21.5826 36.5379 22.2421 38.6467 23.5814 40.31C24.9206 41.9733 26.8401 43.0677 28.9536 43.3728V53.0718C24.6614 51.6409 21.0185 48.7292 18.677 44.8578C16.3355 40.9864 15.4482 36.408 16.174 31.9422C16.8997 27.4764 19.1911 23.4146 22.638 20.4839C26.0849 17.5531 30.4623 15.9448 34.9868 15.9467Z" fill="#1464C0"/>
<path d="M11.9758 11.9947C12.1446 11.8259 12.2595 11.6109 12.3061 11.3769C12.3527 11.1428 12.3288 10.9002 12.2374 10.6797C12.1461 10.4592 11.9915 10.2708 11.793 10.1382C11.5946 10.0056 11.3613 9.93481 11.1226 9.93481C10.884 9.93481 10.6507 10.0056 10.4523 10.1382C10.2538 10.2708 10.0992 10.4592 10.0079 10.6797C9.91653 10.9002 9.89264 11.1428 9.93921 11.3769C9.98577 11.6109 10.1007 11.8259 10.2695 11.9947C10.4957 12.221 10.8026 12.3481 11.1226 12.3481C11.4427 12.3481 11.7496 12.221 11.9758 11.9947Z" fill="#1464C0"/>
</svg>
