<svg width="70" height="63" viewBox="0 0 70 63" fill="none" xmlns="http://www.w3.org/2000/svg">
<path d="M69.8886 21.8044C69.665 21.2088 69.0378 20.4987 67.3183 20.4987H41.1649C35.943 20.4987 35.0248 21.4169 35.0248 26.6387V31.6346L31.5225 25.4242C30.7228 24.0191 30.3267 22.5149 30.3342 20.9119L30.3366 4.37639C30.3366 0.776899 29.5591 0 25.9602 0H21.2857C17.6916 0 16.9153 0.776899 16.9153 4.37639V19.962L16.9177 20.8826C16.9244 22.5004 16.5299 24.0083 15.7341 25.4063L10.4526 34.7678C10.4503 34.772 10.4479 34.7762 10.4455 34.7803L0.988563 51.5424C0.341644 52.689 0 53.99 0 55.3064C0 59.5278 3.43433 62.9621 7.6557 62.9621H39.5848C39.7333 62.9621 39.8883 62.9556 40.0374 62.9496C40.0547 62.949 40.0702 62.9437 40.0875 62.9425C40.4267 62.9538 40.7809 62.9609 41.1655 62.9609H56.9986C62.221 62.9609 63.1392 62.0427 63.1392 56.8209V29.918C63.138 29.7409 63.1374 29.5454 63.144 29.4315C63.2257 29.3522 63.3735 29.224 63.5065 29.1083L68.8118 24.4786C70.1069 23.3481 70.1122 22.4007 69.8886 21.8044ZM17.8061 26.5868C19.2591 24.0355 19.3145 23.8221 19.3026 20.8731L19.3002 4.37639C19.3002 3.92921 19.3002 2.7427 19.4189 2.53461C19.6574 2.38555 20.8403 2.38555 21.2857 2.38555H25.9602C26.4068 2.38555 27.5933 2.38555 27.8014 2.5048C27.9516 2.74389 27.9516 3.9304 27.9516 4.37698V19.9686L27.9493 20.9023C27.9367 23.8304 27.9922 24.0439 29.45 26.6047L34.2473 35.1107C31.0592 38.3369 28.8949 37.2088 25.4266 35.382C22.471 33.8246 18.9127 31.9631 14.1016 33.1526L17.8061 26.5868ZM7.6557 60.5778C4.74963 60.5778 2.38495 58.2131 2.38495 55.307C2.38495 54.4002 2.62047 53.5046 3.06645 52.7146L12.3242 36.302C17.5193 33.9253 20.9751 35.7314 24.3152 37.492C26.244 38.508 28.2068 39.5419 30.3157 39.5419C31.8004 39.5419 33.3571 39.0256 35.0248 37.6345V56.8209C35.0248 58.4647 35.1166 59.681 35.4046 60.5778H7.6557ZM61.9432 27.3071C60.8932 28.2176 60.7489 28.536 60.7531 29.9252V56.8209C60.7531 58.3121 60.7221 59.7997 60.3494 60.1723C59.9768 60.5444 58.4898 60.576 56.998 60.576H41.1649C39.6731 60.576 38.1861 60.5444 37.8134 60.1723C37.4414 59.7997 37.4098 58.3127 37.4098 56.8209V26.6387C37.4098 25.1475 37.4414 23.6599 37.8134 23.2873C38.1861 22.9146 39.6737 22.8836 41.1649 22.8836H67.0118L61.9432 27.3071Z" fill="#1464C0"/>
<path d="M40.7168 29.5172C40.7168 30.1754 41.251 30.7097 41.9093 30.7097H44.4934C45.1516 30.7097 45.6858 30.1754 45.6858 29.5172C45.6858 28.8589 45.1516 28.3247 44.4934 28.3247H41.9093C41.251 28.3247 40.7168 28.8589 40.7168 29.5172Z" fill="#1464C0"/>
<path d="M44.4934 36.8291H41.9093C41.251 36.8291 40.7168 37.3633 40.7168 38.0216C40.7168 38.6798 41.251 39.2141 41.9093 39.2141H44.4934C45.1516 39.2141 45.6858 38.6798 45.6858 38.0216C45.6858 37.3633 45.1516 36.8291 44.4934 36.8291Z" fill="#1464C0"/>
<path d="M44.4934 45.3318H41.9093C41.251 45.3318 40.7168 45.866 40.7168 46.5243C40.7168 47.1825 41.251 47.7167 41.9093 47.7167H44.4934C45.1516 47.7167 45.6858 47.1825 45.6858 46.5243C45.6858 45.866 45.1516 45.3318 44.4934 45.3318Z" fill="#1464C0"/>
<path d="M44.4934 53.8362H41.9093C41.251 53.8362 40.7168 54.3704 40.7168 55.0287C40.7168 55.6869 41.251 56.2211 41.9093 56.2211H44.4934C45.1516 56.2211 45.6858 55.6869 45.6858 55.0287C45.6858 54.3704 45.1516 53.8362 44.4934 53.8362Z" fill="#1464C0"/>
<path d="M15.4483 46.9858C12.9018 46.9858 10.8311 49.0578 10.8311 51.6037C10.8311 54.1496 12.9024 56.221 15.4483 56.221C17.9943 56.221 20.0662 54.1496 20.0662 51.6037C20.0662 49.0578 17.9943 46.9858 15.4483 46.9858ZM15.4483 53.836C14.2177 53.836 13.216 52.8343 13.216 51.6037C13.216 50.3731 14.2177 49.3708 15.4483 49.3708C16.679 49.3708 17.6812 50.3725 17.6812 51.6037C17.6812 52.8349 16.6796 53.836 15.4483 53.836Z" fill="#1464C0"/>
<path d="M26.9054 42.9351C24.9259 42.9351 23.3154 44.5455 23.3154 46.525C23.3154 48.5045 24.9259 50.115 26.9054 50.115C28.8849 50.115 30.4953 48.5045 30.4953 46.525C30.4953 44.5455 28.8849 42.9351 26.9054 42.9351ZM26.9054 47.73C26.2412 47.73 25.7004 47.1892 25.7004 46.525C25.7004 45.8608 26.2412 45.32 26.9054 45.32C27.5696 45.32 28.1104 45.8602 28.1104 46.525C28.1104 47.1898 27.5696 47.73 26.9054 47.73Z" fill="#1464C0"/>
</svg>
