<svg width="58" height="70" viewBox="0 0 58 70" fill="none" xmlns="http://www.w3.org/2000/svg">
<path d="M29.0209 70H21.6293C21.0979 70 20.6619 69.5981 20.6142 69.0667L20.6006 68.9645C20.587 68.8351 20.5733 68.6988 20.5733 68.5694L20.5802 66.9275C20.587 65.9193 20.5938 64.911 20.5938 63.9028C20.5938 63.5213 20.587 63.1057 20.5325 62.731C20.5052 62.5539 20.478 62.4585 20.4575 62.4108C20.403 62.3972 20.3008 62.3904 20.1101 62.3904L17.8075 62.4381C16.6698 62.4653 15.5321 62.4858 14.3944 62.5062L13.9379 62.5198C13.352 62.5334 12.7389 62.5539 12.119 62.4926C10.4363 62.3291 9.14869 61.5116 8.38569 60.115C8.0655 59.5223 7.92925 58.8547 7.97012 58.0848C8.02462 57.1515 8.07231 56.2182 8.11319 55.2849C7.92925 55.2236 7.73168 55.1486 7.53412 55.0464C6.77111 54.6581 6.24655 53.9905 6.08986 53.2139C5.93317 52.4509 6.15117 51.6538 6.68255 51.0202C6.82561 50.8499 6.97549 50.7 7.13218 50.557C6.6008 50.4003 6.11711 50.2027 5.66748 49.9643C5.30642 49.7735 4.96579 49.5215 4.67966 49.2421C3.90303 48.486 3.74634 47.4845 4.25728 46.4899L4.98623 45.0729C5.72879 43.6218 6.47136 42.1707 7.22756 40.7265C7.45237 40.2973 7.7385 39.9158 8.05187 39.6228C10.3273 37.4973 12.9024 36.455 15.6751 36.5231C16.9831 36.5572 18.223 36.8433 19.3539 37.3747C23.1144 39.146 26.0234 41.6938 27.999 44.9639C28.9392 46.5239 29.4705 48.3156 29.6136 50.448C29.9134 54.8421 29.9542 59.2975 30.0019 63.6098C30.0155 64.802 30.0292 65.9942 30.0428 67.1864C30.0496 67.5952 30.0496 68.0039 30.0428 68.4195V68.9849C30.0428 69.5436 29.5864 70 29.0209 70ZM22.6171 67.9562H28.0058C28.0058 67.7042 28.0058 67.4589 27.999 67.2069C27.9786 66.0147 27.9718 64.8156 27.9582 63.6234C27.9173 59.3452 27.8696 54.917 27.5766 50.5842C27.454 48.7857 27.018 47.2869 26.2482 46.013C24.4633 43.0564 21.9222 40.8355 18.4819 39.2209C17.6031 38.8121 16.6425 38.5873 15.6206 38.5601C13.3657 38.5124 11.3355 39.3367 9.44164 41.108C9.29176 41.2442 9.14869 41.4418 9.03288 41.6598C8.27669 43.104 7.54093 44.5483 6.79836 45.9926L6.07623 47.4164C5.96723 47.6276 5.98767 47.648 6.1103 47.7706C6.26017 47.9205 6.44411 48.05 6.63486 48.1521C7.24799 48.4791 7.96331 48.6971 8.88982 48.8402C9.04651 48.8675 9.2032 48.9083 9.35307 48.9492L9.48932 48.9833C9.9117 49.0923 10.2183 49.4533 10.2523 49.8825L10.2591 49.9915C10.2864 50.3185 10.157 50.6387 9.9117 50.8567L9.45526 51.2519C9.3122 51.3813 9.15551 51.5039 9.00563 51.6265C8.7195 51.865 8.447 52.083 8.24263 52.3214C8.14725 52.4304 8.04506 52.6007 8.08594 52.7915C8.12 52.955 8.24944 53.1049 8.45382 53.2139C8.58325 53.282 8.72632 53.3297 8.86938 53.3774C9.03969 53.4387 9.21001 53.5 9.38032 53.5749C9.79589 53.7589 10.1978 54.2426 10.1774 54.8012C10.1365 55.9321 10.0752 57.063 10.0139 58.1938C9.99345 58.5822 10.048 58.8819 10.1842 59.134C10.6134 59.931 11.3151 60.3602 12.3165 60.4556C12.8138 60.5033 13.3384 60.4897 13.8834 60.476L14.3535 60.4624C15.4912 60.442 16.6221 60.4147 17.7598 60.3943L20.0624 60.3466C21.5203 60.3194 22.331 60.9802 22.5422 62.4313C22.6171 62.9354 22.6307 63.4327 22.6307 63.896C22.6307 64.911 22.6239 65.9193 22.6171 66.9343V67.9562ZM51.4751 69.9864H35.0568C34.5118 69.9864 34.0622 69.564 34.035 69.019L34.0281 68.8964C34.0213 68.7737 34.0145 68.6511 34.0145 68.5285L34.0486 62.7991C34.0826 57.8805 34.1099 52.955 34.1303 48.0363V47.3483C34.1303 46.0879 34.1235 44.7867 34.3211 43.4787C34.5731 41.8233 35.0432 39.6773 36.4534 37.7834C37.3459 36.5912 38.5517 35.7397 40.0368 35.256C41.2563 34.8609 42.2509 34.3295 43.0752 33.6278C43.702 33.0964 43.8995 32.02 43.4976 31.2775C43.2387 30.7938 42.5166 30.5076 42.0125 30.6916C41.5628 30.8551 41.0723 31.1003 40.5273 31.4546C38.9741 32.456 37.2641 33.4711 35.2544 34.0978C32.6316 34.9154 30.145 34.7859 27.8628 33.7163C27.2701 33.437 26.3981 33.001 25.6487 32.3743C24.3271 31.2706 22.7534 30.7529 21.384 30.3986C18.8975 29.7446 16.5063 29.9558 14.2717 31.0186C10.8246 32.6672 8.41294 34.9017 6.88693 37.8448C6.02855 39.5138 5.49036 41.3123 5.04073 43.0019L4.93854 43.3697C4.82272 43.7853 4.45485 44.085 4.02566 44.1123C2.7994 44.2009 1.66851 43.7512 0.905507 42.886C0.128876 42.0004 -0.170877 40.7742 0.094813 39.5275C0.251502 38.7713 0.510379 38.0287 0.837381 37.3815C2.22714 34.6224 3.77359 31.3115 4.74779 27.7145C4.98623 26.8289 5.1361 25.8887 5.26554 24.9963C5.32004 24.6488 5.30642 24.2605 5.29279 23.845L5.28598 23.6201C5.14291 17.8772 6.88693 12.8767 10.4703 8.76196C13.0591 5.78488 16.3155 3.58442 20.4098 2.01754C24.7426 0.375711 29.1844 -0.271482 33.6194 0.103208C40.7658 0.702713 46.7744 3.45498 51.4819 8.28508C54.9699 11.8685 57.0341 16.2285 57.6064 21.2426C57.7903 22.8571 57.7835 24.5262 57.5791 26.2089C57.5519 26.4133 57.5655 26.6517 57.5791 26.9106C57.5928 27.1763 57.5996 27.442 57.5859 27.7077C57.4429 30.3101 56.6254 32.749 55.9373 34.5815C55.4468 35.8895 54.8541 37.1635 54.2887 38.4034L53.9344 39.1732C53.7845 39.4934 53.5802 39.725 53.4098 39.9158C53.3485 39.9839 53.2804 40.0588 53.2259 40.1338L53.1101 40.3041C53.0011 40.454 52.858 40.6651 52.8376 40.7605C52.6809 41.4145 52.5174 42.089 52.5174 42.7157C52.497 49.467 52.5038 56.225 52.5038 62.9763V68.9577C52.497 69.5299 52.0337 69.9864 51.4751 69.9864ZM36.0583 67.9426H50.4464V62.9831C50.4464 56.225 50.4464 49.4738 50.46 42.7157C50.46 41.8505 50.6576 41.0194 50.8347 40.2905C50.9505 39.8204 51.2094 39.4457 51.4138 39.146L51.516 39.0029C51.6181 38.8462 51.7476 38.7031 51.877 38.5601C51.9451 38.4851 52.0473 38.3693 52.0678 38.3284L52.422 37.5518C52.9738 36.3528 53.5529 35.1061 54.0162 33.873C54.6974 32.0677 55.4059 29.9149 55.5354 27.6055C55.549 27.4079 55.5354 27.2172 55.5286 27.0196C55.5149 26.7062 55.5013 26.352 55.5422 25.9773C55.7261 24.4581 55.7329 22.9457 55.5694 21.4878C55.0517 16.9302 53.185 12.9721 50.0172 9.72253C45.664 5.24669 40.0913 2.69879 33.4491 2.14016C29.3207 1.79272 25.1854 2.39904 21.1524 3.93186C17.3714 5.36931 14.3875 7.39264 12.0236 10.104C8.73994 13.8714 7.20712 18.2791 7.33656 23.5725L7.34337 23.7836C7.35699 24.2673 7.37062 24.7715 7.29568 25.296C7.15262 26.243 6.99593 27.2512 6.73024 28.2459C5.70836 32.02 4.10741 35.4467 2.66996 38.3012C2.42471 38.7917 2.22714 39.364 2.10452 39.9498C1.97508 40.5698 2.0977 41.142 2.45196 41.544C2.64952 41.7688 2.90158 41.9255 3.20134 42.014C3.65778 40.3518 4.20959 38.5941 5.0816 36.9114C6.81199 33.5528 9.53701 31.0186 13.3997 29.1724C16.0771 27.8916 18.9451 27.6395 21.9086 28.4162C23.4006 28.8045 25.3149 29.4312 26.9635 30.8006C27.3927 31.1616 27.9582 31.4955 28.7348 31.8633C30.5674 32.7217 32.5021 32.8171 34.6481 32.1495C36.4193 31.5976 37.9862 30.6643 39.4169 29.7378C40.0981 29.295 40.7181 28.9816 41.3244 28.7636C42.7823 28.2459 44.5603 28.9407 45.3029 30.3101C46.1545 31.8974 45.7594 34.0365 44.3968 35.1879C43.3613 36.0667 42.1419 36.7275 40.6636 37.2044C39.5736 37.5586 38.7288 38.1445 38.0884 39.0097C37.196 40.2087 36.6578 41.6802 36.3376 43.7921C36.1605 44.9502 36.1673 46.1152 36.1673 47.3483V48.0568C36.1537 52.9822 36.1196 57.9009 36.0855 62.8264L36.0583 67.9426Z" fill="#1464C0"/>
</svg>
