<svg width="70" height="54" viewBox="0 0 70 54" fill="none" xmlns="http://www.w3.org/2000/svg">
<path d="M54.3713 28.9349V28.9793C54.6228 29.253 54.8299 29.5266 55.0444 29.8151C55.0666 29.8373 55.0666 29.8595 55.0888 29.8595C56.3462 31.642 57.0784 33.8018 57.0784 36.1465C57.0784 38.8905 56.0725 41.4053 54.3713 43.3136V45.074H66.4719V34.5488C66.4719 34.0015 66.8935 33.5873 67.4334 33.5873C67.9734 33.5873 68.3802 34.0089 68.3802 34.5488V45.074H69.0533C69.5784 45.074 70 45.5178 70 46.0355V49.0754C70 50.1627 69.5562 51.1686 68.824 51.9083C68.1139 52.6183 67.108 53.0843 66.0133 53.0843H4.00888C2.89941 53.0843 1.91568 52.6257 1.17604 51.9083C0.465976 51.176 0 50.1701 0 49.0754V46.0355C0 45.5104 0.443787 45.074 0.961538 45.074H7.64793C6.82692 44.571 6.07249 43.9645 5.40681 43.2692C3.06213 40.9394 1.61243 37.7367 1.61243 34.1938C1.61243 30.6509 3.06213 27.4186 5.40681 25.0962C7.73669 22.7663 10.9393 21.324 14.4822 21.324H16.1834C16.0355 21.2426 15.8876 21.1317 15.7618 21.0503C13.8092 19.7929 12.3225 17.8402 11.716 15.429C11.5459 14.7781 11.4423 14.105 11.4201 13.4763C11.3757 12.8254 11.4201 12.1746 11.5237 11.568C11.568 11.1465 11.8787 10.7914 12.3225 10.7101C13.5799 10.503 14.8373 10.5399 16.0577 10.8136C16.7678 10.9837 17.463 11.2352 18.1361 11.5459C18.1583 11.4645 18.1583 11.3536 18.1805 11.2722C18.7056 9.00888 20.0444 6.93047 22.0784 5.52515C22.4334 5.29586 22.8994 5.31805 23.2101 5.56953C23.7352 5.94675 24.216 6.39053 24.6598 6.8713C25.0814 7.35207 25.4808 7.89941 25.8136 8.48373C26.3609 9.44527 26.7382 10.4734 26.9231 11.5237C27.5518 11.2056 28.247 10.9541 28.9571 10.8136C30.1553 10.5399 31.3905 10.4956 32.6479 10.7101C33.0917 10.7914 33.4024 11.1538 33.4467 11.568C33.5503 12.1746 33.5947 12.8254 33.5503 13.4763C33.5281 14.105 33.4246 14.7781 33.2544 15.429C32.6479 17.8402 31.1391 19.7929 29.2086 21.0503C29.0606 21.1317 28.9349 21.2426 28.787 21.324H30.4882C32.7515 21.324 34.8891 21.9083 36.7604 22.9586C38.4172 23.8831 39.8447 25.1627 40.932 26.6938C41.3092 26.4867 41.6864 26.2944 42.0858 26.1243V23.003H42.0636C41.5385 23.003 41.1021 22.5592 41.1021 22.0414V17.3447C41.1021 16.8195 41.5459 16.3831 42.0636 16.3831H50.2589C50.784 16.3831 51.2204 16.8269 51.2204 17.3447V22.0414C51.2204 22.5222 50.8654 22.9216 50.3994 23.003V26.1243C51.1095 26.4423 51.8047 26.8195 52.4556 27.2559V11.4867C52.4556 10.9393 52.8772 10.5251 53.4172 10.5251H56.2278V0.961539C56.2278 0.414201 56.6494 0 57.1894 0H63.6465C64.1716 0 64.5932 0.421598 64.5932 0.961539V10.5251H67.426C67.9512 10.5251 68.3728 10.9467 68.3728 11.4867V11.568L68.3506 17.5222C68.3728 17.5888 68.3728 17.6479 68.3728 17.7145C68.3728 17.7959 68.3728 17.8624 68.3506 17.9216V22.071C68.3728 22.1524 68.3728 22.2411 68.3728 22.3225C68.3728 22.4038 68.3728 22.4926 68.3506 22.574L68.3062 31.7604C68.3062 32.2855 67.8846 32.7071 67.3595 32.7071C66.8343 32.7071 66.3979 32.2855 66.3979 31.7604L66.4201 23.2914H60.6361C60.111 23.2914 59.6746 22.8476 59.6746 22.3299C59.6746 21.8121 60.1183 21.3683 60.6361 21.3683H66.4423V18.6834H60.6361C60.111 18.6834 59.6746 18.2618 59.6746 17.7219C59.6746 17.182 60.1183 16.7751 60.6361 16.7751H66.4423L66.4645 12.4334H54.3639V28.9349H54.3713ZM37.1376 30.2737C37.1376 30.2737 37.1598 30.2293 37.182 30.2071C37.2633 30.0814 37.3521 29.9556 37.4334 29.8521C37.9808 29.0754 38.6317 28.3876 39.3639 27.7737C38.4172 26.4941 37.2263 25.4068 35.821 24.6302C34.2456 23.7278 32.426 23.2249 30.4956 23.2249H14.497C11.5015 23.2249 8.75 24.4601 6.76035 26.4571C4.7929 28.4246 3.5503 31.176 3.5503 34.1938C3.5503 37.2115 4.7855 39.9408 6.76035 41.9305C8.49852 43.6465 10.8062 44.8225 13.3876 45.074H31.605C32.6775 44.9704 33.6834 44.7189 34.6228 44.3195C35.6731 43.8979 36.6568 43.2914 37.5148 42.5592C36.1908 40.7766 35.4216 38.5577 35.4216 36.1465C35.4216 33.9867 36.0503 31.9527 37.1376 30.2737ZM39.4675 30.355C43.0325 31.6568 45.7544 30.7101 48.1287 29.8965C49.3269 29.4749 50.4586 29.0976 51.5681 28.9941C50.8358 28.4246 50.0148 28.0104 49.1346 27.6923C48.7352 27.5666 48.4837 27.1894 48.4837 26.7899V22.9956H44.0163V26.7899C44.0163 27.2337 43.7204 27.6109 43.3062 27.7145C42.5518 27.9882 41.8565 28.3432 41.213 28.787H41.1908C40.5621 29.2456 39.9778 29.7707 39.4749 30.3624L39.4675 30.355ZM53.6391 31.1538C52.1746 30.5473 50.5547 31.0873 48.7352 31.7234C45.9689 32.6701 42.7367 33.7796 38.358 31.9749C37.7071 33.2323 37.3299 34.6376 37.3299 36.1465C37.3299 38.6021 38.3358 40.8432 39.9482 42.4556C41.5606 44.0681 43.787 45.0518 46.2574 45.0518C48.7278 45.0518 50.932 44.0681 52.5444 42.4556C54.1568 40.8432 55.1627 38.5947 55.1627 36.1465C55.1627 34.3047 54.5932 32.5814 53.6317 31.1538H53.6391ZM43.0547 18.2988H43.0325V21.0651H49.3047V18.2988H43.0547ZM52.4704 45.0296C52.4704 45.0296 52.4039 45.0518 52.3891 45.074H52.4704V45.0296ZM40.1183 45.074C39.6598 44.7559 39.1938 44.4009 38.7944 44.0015C38.3358 44.4009 37.8328 44.7559 37.3077 45.074H40.1183ZM58.1509 10.5251H62.6997V1.90828H58.1509V10.5251ZM67.7145 47.0044C67.6331 47.0266 67.5222 47.0488 67.4408 47.0488H53.432C53.3284 47.0488 53.2396 47.0266 53.1361 47.0044H31.6864C31.287 47.0488 30.8876 47.071 30.4882 47.071H14.4896C14.0902 47.071 13.6908 47.0488 13.2766 47.0044H1.93787V49.0828C1.93787 49.6524 2.16716 50.1701 2.54438 50.5473C2.9216 50.9246 3.44675 51.1538 4.00888 51.1538H66.0059C66.5754 51.1538 67.0932 50.9246 67.4704 50.5473C67.8476 50.1701 68.0769 49.645 68.0769 49.0828V47.0044H67.6997H67.7145ZM21.3092 20.6509C20.9763 20.3772 20.6583 20.0666 20.3624 19.7263C19.9408 19.2456 19.5414 18.6982 19.2086 18.1361C18.4098 16.7086 17.9956 15.1775 17.9512 13.6465C17.2411 13.2027 16.4645 12.8698 15.6213 12.6849C14.8891 12.5148 14.1346 12.4556 13.358 12.5148C13.3358 12.8107 13.3136 13.0991 13.3358 13.395C13.358 13.9201 13.4394 14.4453 13.5651 14.9482C14.068 16.8787 15.2663 18.4467 16.7973 19.4379C18.1213 20.2959 19.6894 20.7396 21.3018 20.6509H21.3092ZM25.1479 13.1213V13.0991C25.1257 11.8417 24.8151 10.5843 24.142 9.43047C23.8683 8.97189 23.5725 8.5503 23.2175 8.15089C23.0251 7.94379 22.818 7.72929 22.6109 7.54438C21.3092 8.63166 20.429 10.1036 20.074 11.6938C19.6524 13.4985 19.8817 15.4438 20.895 17.1672C21.1465 17.6257 21.4645 18.0695 21.8195 18.4467C22.0118 18.676 22.2189 18.8683 22.426 19.0754C23.7278 17.9882 24.608 16.4941 24.963 14.9038C25.1109 14.3343 25.1701 13.7278 25.1553 13.1213H25.1479ZM23.5133 20.6509C25.1923 20.7544 26.8269 20.318 28.1657 19.4379C29.7189 18.4541 30.9098 16.8787 31.4127 14.9482C31.5385 14.4453 31.6198 13.9201 31.642 13.395C31.642 13.0991 31.642 12.8107 31.6198 12.5148C30.8654 12.4482 30.0888 12.5148 29.3787 12.6849C28.5577 12.8772 27.7663 13.1879 27.0488 13.6317C27.0266 14.2012 26.9675 14.7855 26.8195 15.3328C26.3609 17.3891 25.2293 19.2751 23.5059 20.6583L23.5133 20.6509ZM13.2175 34.1938C13.2175 34.7189 12.7959 35.1405 12.2559 35.1405C11.716 35.1405 11.2944 34.7189 11.2944 34.1938C11.2944 32.2263 12.1302 30.4586 13.4985 29.1642C14.8225 27.8846 16.6642 27.108 18.676 27.108H26.3314C28.3432 27.108 30.1923 27.8846 31.5089 29.1642C32.8476 30.466 33.6908 32.2263 33.6908 34.1938C33.6908 36.1612 32.855 37.929 31.5089 39.2012C30.1849 40.4808 28.3432 41.2796 26.3314 41.2796H18.676C18.1509 41.2796 17.7145 40.8358 17.7145 40.3181C17.7145 39.8003 18.1583 39.3565 18.676 39.3565H26.3314C27.8402 39.3565 29.2012 38.7722 30.1923 37.8254C31.176 36.8787 31.7825 35.6065 31.7825 34.2012C31.7825 32.7959 31.176 31.4941 30.1923 30.5547C29.2086 29.608 27.8476 29.0237 26.3314 29.0237H18.676C17.1672 29.0237 15.8062 29.608 14.8151 30.5547C13.8314 31.5015 13.2249 32.7737 13.2249 34.2012L13.2175 34.1938Z" fill="#1464C0"/>
</svg>
