<svg width="57" height="70" viewBox="0 0 57 70" fill="none" xmlns="http://www.w3.org/2000/svg">
<path d="M56.3616 40.7811C57.0657 38.1962 56.315 35.3742 54.1404 32.3829C54.9448 31.278 55.4493 29.9836 55.6047 28.6258C55.8269 26.665 55.4692 22.8507 50.7976 19.0464C50.7976 18.8615 50.8031 18.6772 50.7898 18.4912C50.5943 15.6786 48.9379 13.112 46.1875 11.2779C46.4627 10.7981 46.5968 10.2504 46.5745 9.69773C46.5522 9.14508 46.3744 8.60994 46.0615 8.15385C45.6384 7.60799 44.6105 6.81226 42.4715 7.62687C41.9762 7.81567 41.4842 8.00725 40.9889 8.19938C37.9482 9.467 34.7948 10.4455 31.5706 11.1219V8.02724C31.5711 7.81454 31.6523 7.60994 31.7977 7.45473C34.3893 4.7177 33.5858 2.64147 33.1193 1.87572C32.6459 1.15143 31.9574 0.593611 31.1507 0.280588C30.344 -0.0324355 29.4595 -0.0849425 28.6215 0.130439C28.4175 0.18984 28.2008 0.18984 27.9968 0.130439C27.1587 -0.0850279 26.2742 -0.0325619 25.4674 0.280468C24.6607 0.593499 23.9723 1.15137 23.4989 1.87572C23.0324 2.64147 22.2289 4.7177 24.8205 7.45473C24.9659 7.60994 25.0471 7.81454 25.0476 8.02724V11.1163C21.8235 10.4409 18.6701 9.4633 15.6293 8.1966C15.134 8.00447 14.642 7.8129 14.1467 7.6241C12.0066 6.80949 10.9815 7.60522 10.5567 8.15107C10.2433 8.60788 10.0654 9.14398 10.0436 9.69754C10.0218 10.2511 10.157 10.7995 10.4334 11.2796C7.68364 13.112 6.02387 15.6769 5.82841 18.4884C5.81508 18.6772 5.81952 18.8615 5.82063 19.0437C1.14897 22.8491 0.79247 26.6623 1.01348 28.623C1.169 29.9811 1.67368 31.2757 2.47833 32.3807C0.302147 35.372 -0.449162 38.1935 0.257169 40.7783C0.722796 42.3701 1.67408 43.7767 2.9781 44.8014C1.06179 52.179 1.81199 56.9773 5.22148 59.0646C6.55852 59.8249 8.07996 60.2 9.61716 60.1486C14.8003 60.1486 21.3049 56.9395 25.0443 54.0853V56.0405C24.861 56.0017 24.6739 55.9589 24.4801 55.9061C24.1082 55.8069 23.7152 55.8198 23.3506 55.9433C22.986 56.0668 22.6661 56.2954 22.4311 56.6003C22.201 56.8868 22.0621 57.2357 22.0324 57.602C22.0027 57.9682 22.0836 58.335 22.2645 58.6548C22.4186 58.9233 22.6188 59.1626 22.8559 59.3617C23.5151 59.905 24.2532 60.3449 25.0448 60.6661V61.4385C24.8616 61.4002 24.6744 61.3569 24.4807 61.3047C24.1088 61.2052 23.7158 61.218 23.3512 61.3414C22.9866 61.4648 22.6666 61.6934 22.4316 61.9982C22.2009 62.2851 22.0617 62.6347 22.032 63.0016C22.0023 63.3685 22.0835 63.7359 22.265 64.0562C22.4192 64.3243 22.6192 64.5634 22.8559 64.7625C23.5151 65.3058 24.2532 65.7456 25.0448 66.0669V67.5967C25.0456 68.2339 25.299 68.8447 25.7495 69.2953C26.2001 69.7458 26.811 69.9993 27.4481 70H29.1662C29.8034 69.9993 30.4142 69.7458 30.8648 69.2953C31.3153 68.8447 31.5688 68.2339 31.5695 67.5967V66.0658C32.3612 65.745 33.0994 65.3053 33.7585 64.7619C33.9959 64.5626 34.1963 64.3229 34.3504 64.0539C34.5314 63.7341 34.6123 63.3674 34.5826 63.0011C34.5529 62.6348 34.414 62.2858 34.1838 61.9994C33.9487 61.6947 33.6287 61.4663 33.2641 61.3429C32.8996 61.2195 32.5067 61.2066 32.1348 61.3058C31.9399 61.358 31.7544 61.3985 31.5706 61.4374V60.6661C32.3624 60.3457 33.1005 59.9062 33.7596 59.3628C33.9969 59.1634 34.1973 58.9238 34.3515 58.6548C34.5325 58.335 34.6134 57.9683 34.5837 57.602C34.554 57.2357 34.4151 56.8867 34.1849 56.6003C33.95 56.2954 33.6301 56.0669 33.2657 55.9434C32.9012 55.8199 32.5083 55.8069 32.1365 55.9061C31.9415 55.9589 31.755 56 31.5717 56.0389V54.0876C35.3127 56.9406 41.8185 60.1469 46.9988 60.1469C48.536 60.1984 50.0575 59.8232 51.3945 59.063C54.804 56.9773 55.5542 52.1774 53.6446 44.8042C54.9471 43.7789 55.897 42.3724 56.3616 40.7811ZM54.7546 40.3435C54.2198 42.3076 52.5084 44.0085 50.1768 44.8908C46.8711 46.143 40.0954 47.4196 31.5689 42.1377V39.2224C34.8257 41.453 40.4464 42.8451 44.9987 42.8451C47.6363 42.8451 49.9102 42.3792 51.1469 41.3408C52.8655 39.8971 53.9061 37.3427 52.2147 34.2537C52.4864 34.068 52.7461 33.8653 52.9921 33.6467C54.7007 36.0983 55.2982 38.3473 54.7546 40.3435ZM48.1577 52.867C45.2302 54.6662 37.9915 51.817 31.5689 46.3746V44.0773C36.2889 46.8071 40.5091 47.6662 43.932 47.6662C45.8064 47.6705 47.6719 47.4064 49.4715 46.8821C49.8908 49.2554 49.8591 51.822 48.1577 52.867ZM29.9031 63.2965C28.8467 63.4803 27.7665 63.4803 26.7101 63.2965V60.0642C27.7682 60.227 28.845 60.227 29.9031 60.0642V63.2965ZM7.14223 46.8821C8.9417 47.4064 10.807 47.6705 12.6813 47.6662C16.1057 47.6662 20.3226 46.8021 25.0443 44.074V46.3735C18.6218 51.8153 11.3841 54.6673 8.45549 52.867C6.75352 51.8214 6.72298 49.2554 7.14223 46.8821ZM5.86506 35.0411C8.74026 36.2866 11.8441 36.9174 14.9774 36.893C18.4211 36.8637 21.8315 36.215 25.0454 34.9778V37.1123C21.0934 40.8705 9.2751 42.3631 6.53918 40.0653C5.78454 39.4323 4.36855 37.7559 5.86395 35.0411H5.86506ZM8.16174 23.9813C10.6417 25.751 14.722 26.7022 19.1771 26.7022C21.1456 26.6962 23.1095 26.5103 25.0443 26.147V27.9239C20.256 30.7348 9.64104 31.1807 7.10836 28.583C6.78445 28.2509 6.53247 27.8556 6.36814 27.4217C6.20382 26.9879 6.13066 26.5248 6.15325 26.0614C6.25111 25.0288 6.70221 24.0615 7.43043 23.3227C7.65251 23.5652 7.89741 23.7858 8.16174 23.9813ZM13.7813 13.9455C16.6222 15.5964 20.904 17.4178 25.0443 17.7876V19.7578C19.8306 21.0783 12.0982 20.8989 11.0748 18.8288C10.7139 18.0997 11.5629 15.5342 13.7813 13.9455ZM42.8319 13.9455C45.0531 15.5342 45.8994 18.0997 45.5384 18.8288C44.5156 20.9 36.782 21.0777 31.5689 19.7572V17.7876C35.7092 17.4178 39.9911 15.5964 42.8319 13.9455ZM49.185 23.33C49.9127 24.0679 50.3638 25.0342 50.4622 26.0659C50.4848 26.5293 50.4116 26.9923 50.2473 27.4262C50.083 27.86 49.831 28.2553 49.5071 28.5875C46.9727 31.1851 36.3583 30.7392 31.5689 27.9278V26.1475C33.5036 26.5114 35.4676 26.6972 37.4362 26.7028C41.8907 26.7028 45.9715 25.7505 48.4515 23.9819C48.7164 23.7883 48.9622 23.5698 49.1856 23.3294L49.185 23.33ZM50.7559 35.0388C52.2552 37.7564 50.8292 39.4323 50.0751 40.0659C47.3381 42.3654 35.521 40.8716 31.5689 37.1129V34.9794C34.783 36.2162 38.1933 36.8644 41.6369 36.893C44.7727 36.9173 47.8788 36.2861 50.7559 35.0388ZM29.9031 48.5508C28.8467 48.734 27.7666 48.734 26.7101 48.5508V45.3195C27.7682 45.4824 28.845 45.4824 29.9031 45.3195V48.5508ZM29.9031 33.8044C28.8467 33.9882 27.7665 33.9882 26.7101 33.8044V30.5737C27.7683 30.7359 28.8449 30.7359 29.9031 30.5737V33.8044ZM28.3066 35.6108C28.841 35.609 29.3746 35.5684 29.9031 35.4892V38.7204C28.8467 38.9037 27.7666 38.9037 26.7101 38.7204V35.4892C27.2387 35.5684 27.7722 35.609 28.3066 35.6108ZM28.3066 40.5262C28.841 40.5245 29.3746 40.4837 29.9031 40.4041V43.6353C28.8467 43.8186 27.7666 43.8186 26.7101 43.6353V40.4068C27.2387 40.4855 27.7723 40.5254 28.3066 40.5262ZM29.9031 19.0587C28.8467 19.2425 27.7665 19.2425 26.7101 19.0587V15.8274C27.7682 15.9903 28.845 15.9903 29.9031 15.8274V19.0587ZM28.3066 20.865C28.841 20.8633 29.3746 20.8225 29.9031 20.7429V23.9741C28.8467 24.1574 27.7666 24.1574 26.7101 23.9741V20.7429C27.2386 20.8225 27.7722 20.8633 28.3066 20.865ZM28.3066 25.7799C28.841 25.7781 29.3746 25.7375 29.9031 25.6583V28.8895C28.8467 29.0728 27.7666 29.0728 26.7101 28.8895V25.6583C27.2387 25.7375 27.7722 25.7781 28.3066 25.7799ZM26.7101 50.2355C27.7683 50.3976 28.8449 50.3976 29.9031 50.2355V53.4667C28.8467 53.65 27.7666 53.65 26.7101 53.4667V50.2355ZM29.9031 14.1416C28.8467 14.3254 27.7665 14.3254 26.7101 14.1416V10.9125C27.7683 11.0747 28.8449 11.0747 29.9031 10.9125V14.1416ZM29.9031 58.3794C28.8467 58.5632 27.7665 58.5632 26.7101 58.3794V55.1487C27.7683 55.3109 28.8449 55.3109 29.9031 55.1487V58.3794ZM53.9472 28.4381C53.828 29.4891 53.4431 30.4924 52.8288 31.3534C52.2145 32.2145 51.3911 32.9049 50.4361 33.3596C45.0042 35.904 38.1569 35.8329 31.5678 33.1964V29.8008C34.4043 31.1535 38.62 31.9414 42.4515 31.9414C45.9982 31.9414 49.215 31.2684 50.6982 29.7486C51.1825 29.252 51.5592 28.6609 51.8047 28.0121C52.0503 27.3634 52.1594 26.671 52.1253 25.9782C51.9997 24.4257 51.2977 22.9765 50.1573 21.9156C50.3016 21.6229 50.4223 21.3191 50.5183 21.0072C53.0171 23.3116 54.2326 25.9137 53.9483 28.4398L53.9472 28.4381ZM49.1256 18.6022C49.2182 19.357 49.1159 20.123 48.8283 20.827C48.5408 21.531 48.0776 22.1495 47.483 22.6236C44.2729 24.9137 37.6677 25.655 31.5678 24.4561V21.4575C33.9451 21.9827 36.372 22.2502 38.8066 22.2555C42.5371 22.2555 46.0443 21.5569 47.031 19.5634C47.8084 17.9942 46.6945 14.9845 44.329 12.9993C44.5805 12.8266 44.8104 12.66 45.0142 12.4996C47.4758 14.0627 48.9635 16.2406 49.1267 18.6039L49.1256 18.6022ZM41.5914 9.7492C42.0823 9.55873 42.5709 9.36827 43.0629 9.18114C43.8903 8.86629 44.5028 8.8624 44.7432 9.1717C44.8608 9.3963 44.9144 9.64895 44.8979 9.90195C44.8814 10.1549 44.7957 10.3985 44.6499 10.606C43.9564 11.5861 37.6399 15.5209 31.5689 16.1134V12.8161C35.0027 12.1265 38.3598 11.0993 41.5914 9.7492ZM24.9193 2.74198C25.1487 2.40727 25.4562 2.13346 25.8151 1.94422C26.1741 1.75498 26.5737 1.65599 26.9795 1.65583C27.1672 1.65485 27.3541 1.68027 27.5348 1.73134C28.0401 1.8774 28.5765 1.8774 29.0818 1.73134C29.5683 1.61563 30.0785 1.65029 30.5449 1.83074C31.0113 2.01119 31.4119 2.32894 31.6939 2.74198C32.2664 3.68597 31.8727 4.94981 30.5833 6.30917C30.1434 6.77289 29.8986 7.38804 29.8997 8.02724V9.22834C28.8433 9.41158 27.7632 9.41158 26.7068 9.22834V8.02724C26.7086 7.38937 26.465 6.77524 26.0266 6.31194C24.7394 4.94981 24.3457 3.68319 24.9193 2.74198ZM11.87 9.1717C12.1104 8.8624 12.7229 8.86629 13.5503 9.18114C14.0423 9.36827 14.5309 9.55873 15.0218 9.7492C18.2535 11.0991 21.6106 12.1266 25.0443 12.8166V16.1145C18.9733 15.5215 12.6568 11.5861 11.9633 10.606C11.8176 10.3985 11.7318 10.1549 11.7153 9.90195C11.6989 9.64895 11.7524 9.3963 11.87 9.1717ZM7.48651 18.6039C7.6531 16.24 9.13461 14.0605 11.5957 12.5034C11.8011 12.6628 12.0332 12.8311 12.2876 13.0032C9.92091 14.9878 8.80533 17.9953 9.58162 19.5645C10.5684 21.5586 14.075 22.2566 17.806 22.2566C20.2404 22.2515 22.6672 21.9853 25.0448 21.4625V24.4567C18.9444 25.6539 12.3392 24.9125 9.12962 22.6242C8.53511 22.1502 8.07195 21.5319 7.78431 20.8281C7.49667 20.1243 7.39414 19.3585 7.48651 18.6039ZM6.09495 21.0072C6.19099 21.3191 6.31168 21.6229 6.45589 21.9156C5.31382 22.9765 4.61053 24.4267 4.4846 25.9804C4.45048 26.6732 4.55961 27.3656 4.80515 28.0143C5.0507 28.6631 5.42739 29.2542 5.9117 29.7508C7.39544 31.2706 10.6111 31.9436 14.1583 31.9436C17.9898 31.9436 22.2062 31.1551 25.042 29.8024V33.2003C18.453 35.8362 11.604 35.9057 6.1738 33.3613C5.21883 32.9066 4.39539 32.2161 3.7811 31.3551C3.16682 30.494 2.78192 29.4907 2.66269 28.4398C2.3806 25.9137 3.59614 23.3111 6.09495 21.0072ZM1.85863 40.3435C1.315 38.3445 1.91083 36.0978 3.62057 33.6456C3.86651 33.8655 4.12617 34.0695 4.39798 34.2564C2.70711 37.3472 3.74718 39.8993 5.4658 41.3431C6.70244 42.3815 8.9758 42.8474 11.614 42.8474C16.164 42.8474 21.7858 41.4591 25.0437 39.2285V42.1399C16.5167 47.4213 9.74155 46.1447 6.4359 44.893C4.10478 44.0074 2.39338 42.3076 1.85863 40.3435ZM6.09051 57.642C3.49396 56.0533 2.93423 51.9691 4.43851 45.7943C4.79825 45.9931 5.16905 46.1713 5.5491 46.3279C4.78779 50.3088 5.46636 52.9864 7.58146 54.2864C8.53356 54.8333 9.61923 55.104 10.7166 55.0682C14.7941 55.0682 20.3759 52.2234 25.0432 48.5274V51.9453C20.9135 55.588 10.7111 60.4684 6.09051 57.642ZM23.9376 58.0957C23.8493 58.0238 23.7741 57.9372 23.7155 57.8397C23.6951 57.8056 23.6868 57.7656 23.6919 57.7262C23.697 57.6868 23.7153 57.6503 23.7438 57.6226C23.7779 57.577 23.8245 57.5423 23.8779 57.5226C23.9313 57.5029 23.9892 57.499 24.0447 57.5115C24.3935 57.6053 24.7255 57.6781 25.0443 57.7336V58.8242C24.6496 58.623 24.2784 58.3786 23.9376 58.0957ZM23.9376 63.4964C23.8493 63.4246 23.7741 63.338 23.7155 63.2404C23.695 63.2062 23.6867 63.1662 23.6918 63.1267C23.697 63.0872 23.7153 63.0506 23.7438 63.0228C23.7778 62.9772 23.8242 62.9425 23.8776 62.9228C23.9309 62.9031 23.9887 62.8992 24.0442 62.9117C24.3924 63.0055 24.725 63.0783 25.0437 63.1338V64.2289C24.649 64.0265 24.278 63.7809 23.9376 63.4964ZM29.1656 68.3347H27.4476C27.2521 68.3344 27.0647 68.2566 26.9265 68.1184C26.7882 67.9801 26.7104 67.7927 26.7101 67.5973V64.9807C27.7683 65.1429 28.8449 65.1429 29.9031 64.9807V67.5973C29.9028 67.7927 29.825 67.9801 29.6868 68.1184C29.5485 68.2566 29.3611 68.3344 29.1656 68.3347ZM32.5679 62.9134C32.6234 62.9007 32.6813 62.9044 32.7347 62.9241C32.788 62.9439 32.8345 62.9787 32.8683 63.0244C32.8966 63.052 32.9149 63.0882 32.9202 63.1274C32.9255 63.1665 32.9176 63.2063 32.8978 63.2404C32.8393 63.3384 32.7641 63.4255 32.6756 63.4975C32.3353 63.7824 31.9641 64.0283 31.5689 64.2305V63.1388C31.8871 63.0811 32.2198 63.0072 32.5679 62.9134ZM32.5679 57.5132C32.6234 57.5006 32.6813 57.5044 32.7346 57.5241C32.7879 57.5439 32.8344 57.5786 32.8683 57.6242C32.8967 57.6517 32.915 57.688 32.9202 57.7272C32.9254 57.7664 32.9173 57.8062 32.8972 57.8402C32.8387 57.9382 32.7635 58.0252 32.6751 58.0973C32.3346 58.3808 31.9634 58.6251 31.5684 58.8259V57.7297C31.886 57.6764 32.2153 57.6081 32.5679 57.5132ZM50.5227 57.642C45.9032 60.4695 35.7003 55.5874 31.5689 51.9453V48.5258C36.2334 52.2223 41.8163 55.0682 45.8955 55.0682C46.9924 55.1047 48.0778 54.8349 49.0301 54.2891C51.1452 52.9892 51.8232 50.3121 51.0613 46.3307C51.4416 46.1753 51.8124 45.9979 52.1719 45.7993C53.6718 51.9664 53.1181 56.0544 50.5227 57.642Z" fill="#1464C0"/>
</svg>
