<svg width="46" height="42" viewBox="0 0 46 42" fill="none" xmlns="http://www.w3.org/2000/svg">
<path d="M20.272 41.3173C21.1402 41.3237 22.0077 41.2684 22.8681 41.1519C23.7317 41.2675 24.6023 41.3228 25.4737 41.3173C28.2335 41.3772 30.9753 40.8587 33.5227 39.7952C36.0701 38.7317 38.3667 37.1468 40.2648 35.1424C42.1964 32.9418 43.6188 30.3423 44.4307 27.529C45.2426 24.7157 45.4239 21.758 44.9618 18.8666C44.9596 18.8537 44.9506 18.8438 44.9478 18.8307C44.9236 18.7374 44.8886 18.6471 44.8436 18.5618C44.7934 18.4117 44.7084 18.2756 44.5955 18.1647C44.4826 18.0538 44.3451 17.9712 44.1941 17.9237C44.1141 17.8826 44.03 17.8503 43.9431 17.8273C43.9288 17.8245 43.9181 17.8144 43.9036 17.8122C39.6557 17.1722 35.3139 17.8695 31.4801 19.8074C31.8215 18.2506 31.9588 16.6561 31.8886 15.0639C31.6956 12.1425 30.8614 9.29946 29.4453 6.73693C28.0292 4.17441 26.066 1.95531 23.6952 0.237381C23.6832 0.228857 23.6693 0.22834 23.6564 0.220203C23.5732 0.171512 23.4848 0.132511 23.3927 0.103963C23.3279 0.073603 23.2608 0.0486766 23.1919 0.0294398C22.9512 -0.0296919 22.6972 0.000887779 22.4775 0.115458C22.3938 0.143054 22.3132 0.179464 22.2371 0.224078C22.2242 0.23286 22.2083 0.233636 22.1954 0.242935C19.839 1.97315 17.8868 4.19482 16.4739 6.75412C15.061 9.31342 14.2213 12.1492 14.0127 15.0652C13.9444 16.6935 14.0932 18.3237 14.4552 19.9128C10.5784 17.8981 6.16313 17.1628 1.84259 17.8122C1.8276 17.8148 1.81675 17.8251 1.80164 17.8279C1.72032 17.8501 1.64143 17.8804 1.56619 17.9184C1.41184 17.9562 1.27511 18.0458 1.17872 18.1721C1.04613 18.2656 0.949501 18.4016 0.904911 18.5576C0.858913 18.6442 0.823279 18.736 0.798745 18.831C0.796032 18.8439 0.786991 18.8536 0.784795 18.8668C0.322571 21.758 0.503778 24.7157 1.3155 27.5289C2.12723 30.3422 3.54948 32.9417 5.48092 35.1424C7.37897 37.1468 9.67557 38.7317 12.223 39.7952C14.7704 40.8587 17.5122 41.3772 20.272 41.3173ZM42.5325 20.239C42.7734 22.6024 42.527 24.99 41.8085 27.2543C41.09 29.5186 39.9147 31.6115 38.3552 33.4035C36.7499 35.1032 34.8118 36.4542 32.6617 37.3722C30.5116 38.2903 28.1955 38.7558 25.8576 38.7398L33.6845 30.8204C33.9208 30.576 34.0512 30.2482 34.0474 29.9082C34.0436 29.5683 33.9059 29.2435 33.6641 29.0044C33.4224 28.7654 33.0961 28.6312 32.7562 28.6312C32.4162 28.6311 32.0899 28.7651 31.848 29.0041L24.2875 36.6548C24.2746 36.0908 24.2397 35.4761 24.1722 34.8172C24.5846 30.8385 26.4259 27.1444 29.3547 24.4201C31.1429 22.8501 33.2372 21.6681 35.5054 20.9486C37.7736 20.229 40.1663 19.9869 42.5325 20.239ZM16.5929 15.1849C16.7549 12.814 17.4035 10.5019 18.4982 8.39273C19.593 6.28352 21.1104 4.42241 22.956 2.92538C24.8084 4.41515 26.33 6.27465 27.4236 8.38526C28.5173 10.4959 29.159 12.8113 29.3079 15.1837C29.4242 17.5654 28.9986 19.9425 28.0632 22.136C27.9148 22.2627 27.7635 22.3745 27.6166 22.5081C26.2565 23.7474 25.0944 25.1878 24.1707 26.7793L24.1871 16.6707C24.1875 16.5011 24.1544 16.3331 24.0898 16.1763C24.0252 16.0194 23.9303 15.8769 23.8106 15.7567C23.6909 15.6366 23.5487 15.5411 23.3921 15.4759C23.2355 15.4107 23.0676 15.377 22.898 15.3767H22.8956C22.5535 15.3767 22.2254 15.5124 21.9832 15.7541C21.7411 15.9957 21.6047 16.3236 21.604 16.6657L21.5875 26.7993C20.6616 25.1999 19.4952 23.7526 18.1291 22.5081C18.0787 22.4621 18.0257 22.4253 17.9756 22.3802C16.955 20.124 16.4812 17.6587 16.5929 15.1849ZM3.21319 20.2399C5.57934 19.9883 7.97196 20.2299 10.2401 20.9493C12.5082 21.6688 14.6025 22.8506 16.391 24.4201C19.3198 27.1439 21.161 30.8377 21.5729 34.816C21.5053 35.4753 21.4706 36.0903 21.4575 36.6538L13.8975 29.0049C13.7788 28.882 13.6368 28.784 13.4799 28.7164C13.323 28.6488 13.1542 28.613 12.9834 28.6111C12.8126 28.6092 12.643 28.6412 12.4847 28.7052C12.3263 28.7693 12.1822 28.8641 12.0607 28.9843C11.9392 29.1044 11.8428 29.2475 11.777 29.4051C11.7112 29.5628 11.6773 29.732 11.6774 29.9028C11.6774 30.0737 11.7113 30.2428 11.7772 30.4004C11.843 30.5581 11.9395 30.7011 12.061 30.8212L19.8879 38.7405C17.5501 38.7564 15.234 38.2908 13.0839 37.3728C10.9338 36.4547 8.99575 35.1039 7.39036 33.4043C5.83093 31.6123 4.65564 29.5194 3.93716 27.2551C3.21868 24.9908 2.97228 22.6032 3.21319 20.2399Z" fill="#1464C0"/>
</svg>
