<svg width="70" height="55" viewBox="0 0 70 55" fill="none" xmlns="http://www.w3.org/2000/svg">
<path d="M57.275 48.5685L60.2249 47.1604C61.1177 46.7307 61.8715 46.0584 62.4 45.2203C62.9285 44.3823 63.2104 43.4123 63.2134 42.4216V36.9126C63.2134 36.6409 63.1128 36.3789 62.9308 36.1772C62.7489 35.9754 62.4987 35.8483 62.2285 35.8203C59.1064 35.4959 57.7186 33.9 57.6499 33.8189C57.5471 33.6955 57.4186 33.596 57.2733 33.5276C57.1281 33.4591 56.9696 33.4232 56.809 33.4225C56.6475 33.4289 56.4888 33.4671 56.342 33.535C56.1953 33.6029 56.0634 33.6991 55.954 33.8181C55.897 33.8863 54.5112 35.4946 51.3752 35.8203C51.1049 35.8482 50.8546 35.9753 50.6727 36.1771C50.4907 36.3788 50.3901 36.6409 50.3902 36.9126V42.4216C50.3934 43.4124 50.6754 44.3823 51.204 45.2203C51.7326 46.0583 52.4864 46.7307 53.3791 47.1604L56.3285 48.5685C56.4763 48.6391 56.638 48.6758 56.8018 48.6758C56.9655 48.6758 57.1272 48.6391 57.275 48.5685ZM54.326 45.1784C53.8065 44.9285 53.3679 44.5374 53.0603 44.0499C52.7527 43.5623 52.5886 42.998 52.5867 42.4216V37.8611C54.12 37.5912 55.5658 36.9561 56.8018 36.0094C58.0379 36.9559 59.4836 37.591 61.0168 37.8611V42.4216C61.015 42.9979 60.8511 43.5621 60.5436 44.0497C60.2362 44.5372 59.7978 44.9284 59.2785 45.1784L56.8018 46.3604L54.326 45.1784ZM68.9018 52.2002H61.6503L62.8084 51.6471C64.3198 50.9199 65.5959 49.7818 66.4907 48.3632C67.3855 46.9445 67.8628 45.3026 67.8679 43.6254V33.2913C67.8679 33.0197 67.7673 32.7577 67.5854 32.5559C67.4036 32.3542 67.1534 32.227 66.8832 32.1989C60.5699 31.5425 57.6912 28.1473 57.6525 28.1009C57.5491 27.9754 57.4192 27.8743 57.2721 27.8048C57.125 27.7354 56.9644 27.6994 56.8018 27.6994C56.6391 27.6994 56.4785 27.7354 56.3314 27.8048C56.1843 27.8743 56.0544 27.9754 55.9511 28.1009C55.9228 28.1354 53.0453 31.5417 46.7208 32.1989C46.4506 32.227 46.2005 32.3542 46.0186 32.5559C45.8368 32.7577 45.7362 33.0197 45.7362 33.2913V43.6254C45.7413 45.3026 46.2185 46.9444 47.1131 48.3631C48.0078 49.7817 49.2838 50.9198 50.7951 51.6471L51.9533 52.2002H5.3086C4.48351 52.1993 3.69248 51.8711 3.10905 51.2877C2.52562 50.7043 2.19743 49.9132 2.19649 49.0882V26.8543H9.67692V28.2455C9.67689 28.3897 9.70528 28.5326 9.76046 28.6658C9.81565 28.7991 9.89654 28.9202 9.99852 29.0222C10.1005 29.1242 10.2216 29.2051 10.3549 29.2603C10.4881 29.3155 10.6309 29.3439 10.7752 29.3439H20.5395C20.6837 29.3439 20.8266 29.3155 20.9598 29.2603C21.0931 29.2051 21.2142 29.1242 21.3162 29.0222C21.4182 28.9202 21.4991 28.7991 21.5543 28.6658C21.6095 28.5326 21.6379 28.3897 21.6379 28.2455V26.8543H38.1898V28.2455C38.1898 28.3897 38.2182 28.5326 38.2734 28.6658C38.3285 28.7991 38.4094 28.9202 38.5114 29.0222C38.6134 29.1242 38.7345 29.2051 38.8677 29.2603C39.001 29.3155 39.1438 29.3439 39.2881 29.3439H49.0526C49.1968 29.3439 49.3396 29.3155 49.4729 29.2603C49.6061 29.2051 49.7272 29.1242 49.8292 29.0222C49.9312 28.9202 50.0121 28.7991 50.0673 28.6658C50.1225 28.5326 50.1508 28.3897 50.1508 28.2455V26.8543H53.8425C54.1338 26.8543 54.4132 26.7386 54.6192 26.5326C54.8251 26.3266 54.9409 26.0472 54.9409 25.7559C54.9409 25.4646 54.8251 25.1853 54.6192 24.9793C54.4132 24.7733 54.1338 24.6576 53.8425 24.6576H50.0966C49.9711 23.9603 49.6049 23.3292 49.0619 22.8742C48.5188 22.4192 47.8333 22.1692 47.1248 22.1677H41.2156C40.5071 22.1692 39.8217 22.4192 39.2786 22.8742C38.7356 23.3292 38.3695 23.9603 38.244 24.6576H21.5837C21.4582 23.9603 21.092 23.3292 20.549 22.8742C20.0059 22.4192 19.3204 22.1692 18.612 22.1677H12.7027C11.9943 22.1692 11.3088 22.4192 10.7658 22.8742C10.2227 23.3292 9.85658 23.9603 9.73112 24.6576H2.19649V17.246C2.1974 16.4209 2.52557 15.6299 3.10901 15.0465C3.69245 14.463 4.48349 14.1349 5.3086 14.1339H54.519C55.3441 14.1348 56.1352 14.463 56.7186 15.0464C57.302 15.6299 57.6302 16.4209 57.6311 17.246V24.692C57.6318 24.9828 57.7478 25.2615 57.9537 25.4669C58.1596 25.6723 58.4386 25.7877 58.7294 25.7877C59.0202 25.7877 59.2992 25.6723 59.5051 25.4669C59.711 25.2615 59.827 24.9828 59.8278 24.692V17.246C59.8262 15.8386 59.2663 14.4892 58.2711 13.4939C57.2759 12.4987 55.9265 11.9389 54.519 11.9373H46.955V6.8809C46.9529 5.0566 46.2273 3.30761 44.9374 2.01763C43.6474 0.727654 41.8984 0.00204757 40.0741 0H19.7537C17.9293 0.00200906 16.1803 0.727598 14.8903 2.01758C13.6003 3.30756 12.8746 5.05657 12.8726 6.8809V11.9373H5.3086C3.90114 11.9389 2.5518 12.4987 1.5566 13.494C0.561389 14.4892 0.00158722 15.8386 0 17.246V49.0882C0.00161349 50.4956 0.561429 51.8449 1.55663 52.8401C2.55184 53.8353 3.90116 54.3951 5.3086 54.3967H68.9017C69.193 54.3967 69.4724 54.281 69.6783 54.0751C69.8843 53.8691 70 53.5898 70 53.2985C70 53.0072 69.8843 52.7279 69.6783 52.5219C69.4724 52.3159 69.193 52.2002 68.9018 52.2002ZM47.9327 43.6254V34.2587C51.2059 33.8449 54.2877 32.4868 56.8018 30.3503C59.3162 32.4865 62.398 33.8446 65.6713 34.2587V43.6254C65.6674 44.8882 65.3081 46.1244 64.6345 47.1925C63.9608 48.2606 63.0001 49.1175 61.8621 49.665L56.8018 52.0814L51.7416 49.665C50.6037 49.1174 49.6431 48.2605 48.9695 47.1924C48.2959 46.1243 47.9366 44.8881 47.9327 43.6254ZM40.3863 25.1935C40.3865 24.9736 40.474 24.7628 40.6294 24.6074C40.7849 24.4519 40.9957 24.3645 41.2156 24.3642H47.1248C47.3447 24.3644 47.5555 24.4519 47.711 24.6074C47.8665 24.7628 47.9539 24.9736 47.9541 25.1935V27.1472H40.3863V25.1935ZM11.8735 25.1935C11.8737 24.9736 11.9611 24.7628 12.1166 24.6074C12.2721 24.4519 12.4829 24.3644 12.7027 24.3642H18.612C18.8318 24.3645 19.0426 24.4519 19.1981 24.6074C19.3536 24.7628 19.441 24.9736 19.4412 25.1935V27.1472H11.8735V25.1935ZM19.8879 11.9373V7.6038C19.8882 7.38388 19.9758 7.17307 20.1313 7.0176C20.2869 6.86214 20.4977 6.77471 20.7176 6.7745H39.1099C39.3299 6.77471 39.5407 6.86214 39.6963 7.0176C39.8518 7.17307 39.9394 7.38388 39.9397 7.6038V11.9373L19.8879 11.9373ZM15.0692 6.8809C15.0706 5.63893 15.5645 4.4482 16.4427 3.56999C17.3209 2.69178 18.5117 2.19781 19.7537 2.19647H40.0741C41.316 2.19784 42.5067 2.69182 43.385 3.57003C44.2632 4.44823 44.7571 5.63894 44.7585 6.8809V11.9373H42.1363V7.6038C42.1354 6.8015 41.8162 6.03235 41.2488 5.4651C40.6815 4.89785 39.9122 4.57882 39.1099 4.57801H20.7176C19.9154 4.57882 19.1462 4.89785 18.5788 5.46511C18.0115 6.03236 17.6923 6.80151 17.6914 7.6038V11.9373H15.0692V6.8809ZM27.4399 47.8976H32.3877C32.5319 47.8976 32.6747 47.8692 32.808 47.814C32.9412 47.7588 33.0623 47.6778 33.1643 47.5758C33.2663 47.4738 33.3472 47.3528 33.4024 47.2195C33.4576 47.0862 33.486 46.9434 33.4859 46.7992V42.7008H37.584C37.7282 42.7008 37.871 42.6724 38.0043 42.6172C38.1375 42.562 38.2586 42.4811 38.3606 42.3792C38.4626 42.2772 38.5435 42.1561 38.5987 42.0229C38.6539 41.8896 38.6823 41.7468 38.6823 41.6026V36.6548C38.6823 36.5106 38.6539 36.3677 38.5987 36.2345C38.5435 36.1012 38.4626 35.9802 38.3606 35.8782C38.2586 35.7762 38.1375 35.6953 38.0043 35.6401C37.871 35.5849 37.7282 35.5565 37.584 35.5565H33.486V31.4584C33.486 31.3142 33.4576 31.1714 33.4024 31.0381C33.3472 30.9049 33.2663 30.7838 33.1643 30.6818C33.0623 30.5798 32.9412 30.4989 32.808 30.4437C32.6747 30.3885 32.5319 30.3601 32.3877 30.3601H27.4399C27.2957 30.3601 27.1529 30.3885 27.0196 30.4437C26.8864 30.4989 26.7653 30.5798 26.6633 30.6818C26.5613 30.7838 26.4804 30.9049 26.4252 31.0381C26.3701 31.1714 26.3417 31.3142 26.3417 31.4584V35.5565H22.2437C22.0995 35.5565 21.9566 35.5849 21.8234 35.6401C21.6901 35.6952 21.569 35.7761 21.467 35.8781C21.365 35.9801 21.2841 36.1012 21.2289 36.2344C21.1737 36.3677 21.1453 36.5105 21.1453 36.6548V41.6025C21.1453 41.7468 21.1737 41.8896 21.2289 42.0228C21.2841 42.1561 21.365 42.2772 21.467 42.3792C21.569 42.4811 21.6901 42.562 21.8234 42.6172C21.9566 42.6724 22.0995 42.7008 22.2437 42.7008H26.3416V46.7991C26.3416 46.9434 26.37 47.0862 26.4252 47.2195C26.4804 47.3527 26.5613 47.4738 26.6632 47.5758C26.7652 47.6778 26.8863 47.7587 27.0196 47.8139C27.1528 47.8691 27.2957 47.8976 27.4399 47.8976ZM23.342 40.5043V37.753H27.4399C27.5841 37.753 27.7269 37.7246 27.8602 37.6694C27.9934 37.6142 28.1145 37.5333 28.2165 37.4314C28.3185 37.3294 28.3994 37.2083 28.4546 37.0751C28.5098 36.9418 28.5382 36.799 28.5382 36.6548V32.5567H31.2894V36.6548C31.2894 36.799 31.3178 36.9418 31.373 37.0751C31.4282 37.2083 31.5091 37.3294 31.6111 37.4314C31.7131 37.5333 31.8341 37.6142 31.9674 37.6694C32.1006 37.7246 32.2435 37.753 32.3877 37.753H36.4857V40.5043H32.3877C32.2435 40.5043 32.1007 40.5327 31.9674 40.5879C31.8341 40.6431 31.7131 40.724 31.6111 40.8259C31.5091 40.9279 31.4282 41.049 31.373 41.1823C31.3178 41.3155 31.2894 41.4583 31.2894 41.6026V45.7009H28.5382V41.6026C28.5382 41.4583 28.5098 41.3155 28.4546 41.1823C28.3994 41.049 28.3185 40.9279 28.2165 40.826C28.1145 40.724 27.9935 40.6431 27.8602 40.5879C27.727 40.5327 27.5841 40.5043 27.4399 40.5043H23.342ZM6.73597 31.4846C6.8802 31.4846 7.02302 31.513 7.15627 31.5682C7.28953 31.6234 7.4106 31.7043 7.51258 31.8063C7.61456 31.9083 7.69545 32.0294 7.75063 32.1626C7.80582 32.2959 7.83421 32.4387 7.83419 32.5829V46.7992C7.83419 47.0905 7.71848 47.3698 7.51252 47.5758C7.30656 47.7817 7.02721 47.8974 6.73594 47.8974C6.44466 47.8974 6.16531 47.7817 5.95935 47.5758C5.75339 47.3698 5.63768 47.0905 5.63768 46.7992V32.5829C5.63766 32.4387 5.66605 32.2959 5.72124 32.1626C5.77643 32.0293 5.85733 31.9083 5.95931 31.8063C6.0613 31.7043 6.18238 31.6234 6.31564 31.5682C6.4489 31.513 6.59173 31.4845 6.73597 31.4846Z" fill="#1464C0"/>
</svg>
