<svg width="64" height="70" viewBox="0 0 64 70" fill="none" xmlns="http://www.w3.org/2000/svg">
<path d="M31.763 21.6631C37.7366 21.6631 42.596 16.8037 42.596 10.83C42.596 4.85941 37.7367 0 31.763 0C25.7893 0 20.93 4.85933 20.93 10.833C20.93 16.8037 25.7893 21.6631 31.763 21.6631ZM31.763 1.81745C36.7332 1.81745 40.7756 5.86013 40.7756 10.83C40.7756 15.8 36.7329 19.8426 31.763 19.8426C26.7931 19.8426 22.7504 15.8 22.7504 10.83C22.7504 5.86282 26.7931 1.81745 31.763 1.81745ZM60.6563 27.3768H47.286C44.9584 25.055 42.1087 23.2612 39.0231 22.182C38.6527 22.0537 38.2443 22.1762 38.0022 22.4854L34.225 27.3797H29.3015L25.5242 22.4854C25.2851 22.1762 24.8738 22.0537 24.5034 22.182C21.4145 23.2612 18.5677 25.0551 16.2404 27.3768H2.87014C1.28633 27.3768 0 28.666 0 30.2469V67.1299C0 68.7137 1.28924 70 2.87014 70H60.6605C62.2443 70 63.5307 68.7108 63.5307 67.1299V30.2499C63.5307 28.6661 62.2414 27.3769 60.6576 27.3769L60.6563 27.3768ZM39.0343 24.1246C41.0381 24.9004 42.9194 26.0059 44.5849 27.3768H36.5199L39.0343 24.1246ZM24.491 24.1246L27.0023 27.3768H18.9403C20.6058 26.0059 22.4871 24.9004 24.491 24.1246ZM61.7092 67.1326C61.7092 67.7131 61.2366 68.1856 60.6562 68.1856H2.8688C2.28836 68.1856 1.81581 67.7131 1.81581 67.1326V30.2497C1.81581 29.6693 2.28832 29.1967 2.8688 29.1967H60.6592C61.2396 29.1967 61.7122 29.6692 61.7122 30.2497L61.7092 67.1326ZM59.6499 58.633V65.2162C59.6499 65.7178 59.2445 66.1262 58.7399 66.1262H52.1567C51.655 66.1262 51.2466 65.7208 51.2466 65.2162C51.2466 64.7145 51.6521 64.3061 52.1567 64.3061H57.8299V58.6329C57.8299 58.1312 58.2353 57.7229 58.7399 57.7229C59.2445 57.7229 59.6499 58.1313 59.6499 58.633ZM12.2759 32.1664C12.2759 32.6681 11.8705 33.0765 11.3659 33.0765H5.69272V38.7497C5.69272 39.2514 5.28729 39.6597 4.78265 39.6597C4.28096 39.6597 3.87258 39.2543 3.87258 38.7497V32.1665C3.87258 31.6648 4.27801 31.2565 4.78265 31.2565H11.3658C11.8675 31.2565 12.2759 31.6618 12.2759 32.1664ZM12.2759 65.2166C12.2759 65.7183 11.8705 66.1267 11.3659 66.1267H4.78272C4.28103 66.1267 3.87265 65.7212 3.87265 65.2166V58.6335C3.87265 58.1318 4.27808 57.7234 4.78272 57.7234C5.2844 57.7234 5.69279 58.1288 5.69279 58.6335V64.3066H11.3659C11.8676 64.3066 12.2759 64.7149 12.2759 65.2166ZM59.6499 32.1664V38.7496C59.6499 39.2513 59.2445 39.6597 58.7399 39.6597C58.2382 39.6597 57.8298 39.2542 57.8298 38.7496V33.0764H52.1566C51.6549 33.0764 51.2466 32.671 51.2466 32.1664C51.2466 31.6647 51.652 31.2563 52.1566 31.2563H58.7398C59.2444 31.2563 59.6499 31.6618 59.6499 32.1664ZM16.715 33.8611C16.7909 32.2452 18.576 31.0085 21.8807 30.2822C22.3707 30.1742 22.8549 30.4863 22.9628 30.9764C23.0707 31.4664 22.7586 31.9506 22.2686 32.0585C19.5618 32.6506 18.5497 33.511 18.5293 33.9427C18.4885 34.8439 21.6998 36.7428 28.2483 37.3203C28.747 37.364 29.1175 37.8045 29.0737 38.3061C29.0329 38.7786 28.6362 39.1345 28.1696 39.1345C28.1433 39.1345 28.1171 39.1316 28.0879 39.1316C22.3302 38.6241 16.5776 36.7983 16.715 33.8611ZM46.2296 44.2595C47.0259 45.2454 47.058 46.0825 46.9471 46.6133C46.5096 48.693 43.4499 49.4163 40.046 49.4163C38.7539 49.4163 37.4151 49.3143 36.1463 49.1393C35.6475 49.0722 35.3004 48.6142 35.3675 48.1155C35.4345 47.6167 35.8954 47.2696 36.3913 47.3367C41.7407 48.0659 44.9753 47.15 45.1679 46.2399C45.2117 46.0357 45.0862 45.7353 44.815 45.3999C44.5 45.009 44.5612 44.4373 44.9521 44.1224C45.34 43.8074 45.9146 43.8687 46.2296 44.2595ZM48.4522 39.4556C48.598 42.6116 41.7291 44.3033 35.8025 44.7933C35.7762 44.7962 35.7529 44.7962 35.7266 44.7962C35.257 44.7962 34.8603 44.4374 34.8225 43.962C34.7816 43.4632 35.1521 43.0228 35.6538 42.9819C38.8593 42.7165 41.7848 42.1448 43.8876 41.3689C46.1714 40.526 46.6439 39.7647 46.6352 39.543C46.6264 39.3768 46.3172 38.9334 45.1943 38.4638C44.7305 38.2684 44.5147 37.7376 44.7072 37.2738C44.9026 36.81 45.4334 36.5942 45.8973 36.7867C47.5423 37.4721 48.4026 38.3706 48.4522 39.4556ZM34.4487 38.3093C34.405 37.8105 34.7725 37.3672 35.2742 37.3234C41.8223 36.7459 45.0335 34.8442 44.9932 33.9458C44.9727 33.5112 43.9606 32.6537 41.2568 32.0616C40.7668 31.9537 40.4547 31.4695 40.5626 30.9795C40.6705 30.4895 41.1547 30.1803 41.6447 30.2853C44.9494 31.0087 46.7345 32.2483 46.8103 33.8642C46.9474 36.8014 41.1956 38.6302 35.4352 39.1377C35.4089 39.1407 35.3798 39.1407 35.3535 39.1407C34.8897 39.1377 34.4925 38.7818 34.4487 38.3093ZM23.4813 49.4163C20.0774 49.4163 17.0148 48.6959 16.5802 46.6133C16.4693 46.0825 16.5044 45.2425 17.2977 44.2595C17.6127 43.8687 18.1844 43.8074 18.5752 44.1224C18.9661 44.4375 19.0273 45.0091 18.7123 45.4C18.4411 45.7354 18.3156 46.0329 18.3594 46.24C18.5519 47.153 21.7836 48.0659 27.136 47.3367C27.6319 47.2696 28.0927 47.6167 28.1598 48.1155C28.2269 48.6143 27.8798 49.0722 27.381 49.1393C26.1122 49.3114 24.7705 49.4163 23.4813 49.4163ZM45.6544 52.5519C45.9081 53.7915 45.5523 54.5528 45.211 54.9728C44.6831 55.6203 43.8897 55.8974 42.9388 55.8974C40.5558 55.8974 37.1752 54.1707 34.4571 52.2602C34.0459 51.9714 33.9467 51.4056 34.2354 50.9943C34.5242 50.5831 35.09 50.4839 35.5013 50.7727C39.9173 53.8761 43.2132 54.547 43.7993 53.8265C43.9802 53.6077 43.9218 53.1644 43.8722 52.9194C43.7701 52.4265 44.0881 51.9481 44.581 51.846C45.0739 51.741 45.5552 52.0589 45.6544 52.5519ZM27.7188 44.793C21.7919 44.3029 14.9227 42.6112 15.069 39.4553C15.1186 38.3732 15.9791 37.4748 17.6241 36.7836C18.0879 36.5881 18.6187 36.8069 18.8142 37.2707C19.0096 37.7344 18.7909 38.2653 18.3271 38.4607C17.2042 38.9303 16.895 39.3737 16.8862 39.5399C16.8775 39.7616 17.35 40.5258 19.6338 41.3658C21.7397 42.1417 24.6624 42.7134 27.8676 42.9788C28.3664 43.0197 28.7398 43.4601 28.6989 43.9589C28.661 44.4343 28.2614 44.7931 27.7948 44.7931C27.7714 44.796 27.745 44.793 27.7188 44.793ZM36.5477 55.4042L33.7797 55.8067L33.7826 36.9527C33.7826 35.8385 32.8755 34.9314 31.7613 34.9314C30.6471 34.9314 29.74 35.8385 29.74 36.9527V55.8097L26.972 55.4072C24.6765 55.0718 22.5385 56.6673 22.2031 58.9628C21.8677 61.2582 23.4631 63.3962 25.7586 63.7317L27.6924 64.0146C28.0162 65.9659 29.7166 67.4593 31.7584 67.4593C33.8001 67.4593 35.5006 65.9659 35.8244 64.0146L37.7581 63.7317C40.0536 63.3962 41.6491 61.2582 41.3137 58.9628C40.9841 56.6673 38.8432 55.0717 36.5477 55.4042ZM37.4985 61.932L34.8413 62.3199C34.3834 62.387 34.048 62.7866 34.0625 63.2504C34.0625 63.2795 34.0654 63.3087 34.0654 63.3379C34.0654 64.6067 33.0329 65.6421 31.7612 65.6421C30.4924 65.6421 29.457 64.6096 29.457 63.3379C29.457 63.3087 29.457 63.2795 29.4599 63.2504C29.4745 62.7866 29.142 62.387 28.6811 62.3199L26.0239 61.932C24.7201 61.7424 23.816 60.5261 24.0055 59.2252C24.1776 58.0381 25.2014 57.1805 26.3682 57.1805C26.4819 57.1805 26.5986 57.1893 26.7153 57.2068L30.5217 57.761C30.7842 57.7989 31.0467 57.7201 31.248 57.5481C31.4492 57.376 31.563 57.1251 31.563 56.8597L31.5571 36.9528C31.5571 36.842 31.6505 36.7516 31.7584 36.7516C31.8692 36.7516 31.9596 36.8449 31.9596 36.9528V56.8597C31.9596 57.1222 32.0734 57.376 32.2747 57.5481C32.4759 57.7201 32.7384 57.7989 33.0009 57.761L36.8074 57.2068C38.1112 57.0172 39.3245 57.9214 39.5141 59.2252C39.7095 60.5261 38.8023 61.7424 37.4985 61.932ZM30.087 59.6773C30.0841 59.6686 30.0811 59.6598 30.0753 59.6511C30.0374 59.5607 30.0024 59.4615 29.9674 59.3623C29.8041 58.8986 29.5795 58.2656 29.0107 57.8689C28.5528 57.551 27.9986 57.4285 27.4503 57.5277C26.9019 57.6268 26.4236 57.9331 26.1056 58.3881C25.7877 58.846 25.6652 59.4002 25.7644 59.9485C25.8636 60.4968 26.1698 60.9752 26.6248 61.2932C27.109 61.6315 27.6719 61.6753 28.1357 61.6753C28.2261 61.6753 28.3107 61.6724 28.3923 61.6724C28.4886 61.6694 28.5848 61.6694 28.6753 61.6694H28.6928H29.5124C29.8099 61.6694 30.087 61.5236 30.2562 61.2786C30.4254 61.0336 30.4662 60.7244 30.3641 60.4444L30.087 59.6773ZM27.6719 59.8028C27.596 59.7503 27.5698 59.6803 27.561 59.6307C27.5523 59.5811 27.5523 59.5052 27.6048 59.4294C27.6573 59.3536 27.7273 59.3273 27.7769 59.3186C27.7915 59.3157 27.809 59.3127 27.8265 59.3127C27.8702 59.3127 27.9256 59.3244 27.9781 59.3623C28.0511 59.4119 28.1502 59.6657 28.2202 59.8582C28.0073 59.8582 27.7448 59.8553 27.6719 59.8028ZM29.0632 52.2597C26.3448 54.1701 22.9642 55.8969 20.5815 55.8969C19.6307 55.8969 18.8373 55.6227 18.3093 54.9722C17.968 54.5522 17.6122 53.791 17.866 52.5513C17.968 52.0584 18.4464 51.7434 18.9393 51.8425C19.4323 51.9446 19.7472 52.423 19.6481 52.9159C19.5985 53.1609 19.5402 53.6043 19.721 53.823C20.3102 54.5434 23.6032 53.8726 28.022 50.7721C28.4333 50.4833 28.9991 50.5825 29.2879 50.9938C29.5737 51.4021 29.4745 51.9709 29.0632 52.2597ZM34.5059 57.8686C33.9371 58.2653 33.7126 58.8982 33.5493 59.362C33.5143 59.4612 33.4792 59.5574 33.4413 59.6507C33.4384 59.6595 33.4355 59.6682 33.4326 59.677L33.1497 60.4441C33.0476 60.7212 33.0855 61.0333 33.2576 61.2783C33.4267 61.5233 33.7068 61.6691 34.0013 61.6691H34.821H34.8385C34.9289 61.6662 35.0252 61.6691 35.1214 61.672C35.2031 61.675 35.2877 61.675 35.3781 61.675C35.8419 61.675 36.4048 61.6312 36.889 61.2929C37.3469 60.9749 37.6531 60.4966 37.7494 59.9482C37.8485 59.3999 37.726 58.8456 37.4081 58.3878C36.7548 57.4457 35.4509 57.2123 34.5059 57.8686ZM35.9614 59.6274C35.9526 59.677 35.9264 59.747 35.8505 59.7995C35.7747 59.852 35.5122 59.8579 35.3022 59.8549C35.3722 59.6624 35.4714 59.4087 35.5443 59.3591C35.6201 59.3066 35.6959 59.3066 35.7455 59.3153C35.7951 59.3241 35.8651 59.3503 35.9176 59.4262C35.9701 59.5049 35.9701 59.5778 35.9614 59.6274Z" fill="#1464C0"/>
</svg>
