<svg width="70" height="70" viewBox="0 0 70 70" fill="none" xmlns="http://www.w3.org/2000/svg">
<path d="M23.2704 10.4982H25.6034V8.16528H27.9363V5.83233H25.6034V3.49939H23.2704V5.83233H20.9375V8.16528H23.2704V10.4982Z" fill="#1464C0"/>
<path d="M56.5153 22.163C49.0615 22.163 43.4974 27.4471 43.1358 34.7959L37.5717 40.9198C37.2801 41.2348 37.1868 41.7014 37.3385 42.098C37.4901 42.5062 37.8517 42.7979 38.2716 42.8562L45.4454 43.8244C47.6501 47.2538 51.3711 48.9918 56.5036 48.9918C64.2723 48.9918 69.918 43.3461 69.918 35.5774C69.918 27.8087 64.2723 22.163 56.5036 22.163H56.5153ZM56.5153 46.6589C51.966 46.6589 48.9099 45.1891 47.1718 42.168C46.9968 41.853 46.6819 41.6431 46.3203 41.5964L40.7912 40.8499L45.1422 36.0556C45.3288 35.8457 45.4338 35.5774 45.4454 35.2974C45.5854 28.9402 50.1347 24.5076 56.5153 24.5076C62.8959 24.5076 67.5967 29.1735 67.5967 35.5891C67.5967 42.0047 62.9309 46.6705 56.5153 46.6705V46.6589Z" fill="#1464C0"/>
<path d="M43.801 50.8232L37.0355 48.117L33.6411 46.7522C32.8595 46.4373 32.2413 45.8657 31.868 45.1658C31.868 45.1658 31.868 45.1541 31.868 45.1425C31.7397 44.8859 31.6347 44.6292 31.5647 44.3609C31.5647 44.3376 31.5647 44.3143 31.5531 44.291C31.4948 44.0343 31.4481 43.766 31.4481 43.4978V41.6431C31.4481 41.6431 31.4714 41.6081 31.4831 41.5964C31.868 41.0715 32.2646 40.4999 32.6379 39.8467L32.6612 39.8117C32.8595 39.4618 33.0578 39.0885 33.2561 38.7036C33.6644 38.7036 34.166 38.6102 34.7609 38.3769C37.5721 37.2921 41.6431 33.5127 41.9463 29.2435C42.0163 28.252 41.5497 27.3421 40.5699 26.5023C43.1128 25.3474 45.784 23.9477 45.4341 21.953C45.2475 20.8682 43.8827 19.9467 42.4479 19.2701C44.7692 15.1758 44.5243 14.9308 43.9527 14.3476C42.9612 13.3328 38.5869 14.3826 36.7672 15.2808C36.5106 15.4091 36.2423 15.5491 36.1023 15.6074C35.9973 15.5607 35.869 15.4908 35.694 15.3974H35.6707L40.5582 8.86519C40.8849 8.42193 40.8615 7.81536 40.5116 7.4071C38.7619 5.37744 36.6856 3.72105 34.3409 2.47292C31.3314 0.874854 27.9253 0.0233294 24.4609 0C21.0082 0.0233294 17.6021 0.874854 14.5926 2.47292C12.248 3.72105 10.1716 5.37744 8.42193 7.4071C8.06032 7.82703 8.04866 8.43359 8.37527 8.86519L13.6011 15.829C11.8514 17.5554 10.5216 19.8884 9.99667 22.2913C9.74004 23.4461 9.72838 24.5192 9.91501 25.4758C7.87369 26.5722 6.89385 27.832 6.99883 29.2551C7.30212 33.5011 11.3614 37.2805 14.161 38.3769C14.7559 38.6102 15.2575 38.7036 15.6774 38.7036C16.249 39.8467 16.8555 40.8149 17.4738 41.6197V43.5327C17.4854 43.7894 17.4504 44.046 17.3921 44.291C17.3921 44.3143 17.3921 44.3493 17.3688 44.3726C17.2988 44.6292 17.2055 44.8975 17.0655 45.1425C17.0655 45.1425 17.0655 45.1541 17.0655 45.1658C16.6806 45.8774 16.074 46.4489 15.2925 46.7522L11.898 48.117L5.13248 50.8232C2.018 52.0713 0 55.0458 0 58.4053V68.8335C0 69.4751 0.524913 70 1.16647 70H47.767C48.4086 70 48.9335 69.4751 48.9335 68.8335V58.4053C48.9335 55.0458 46.9155 52.0713 43.801 50.8232ZM35.9973 34.9358C35.4141 35.4024 34.8775 35.7407 34.4343 35.974C34.4809 35.8574 34.5159 35.729 34.5626 35.6124C34.6442 35.3791 34.7375 35.1458 34.8192 34.9125C35.0175 34.3526 35.2158 33.781 35.3908 33.2095C35.4374 33.0695 35.4841 32.9295 35.5307 32.7895C35.5424 32.7545 35.5541 32.7079 35.5657 32.6729C35.5774 32.6262 35.5891 32.5796 35.6007 32.5446C35.834 31.763 36.0557 30.9582 36.254 30.1533V30.1183C36.4173 29.4651 36.5689 28.8002 36.6972 28.1353C37.1171 28.007 37.5371 27.867 37.9453 27.7037C37.992 27.6804 38.0503 27.6687 38.097 27.6454C39.3101 28.3219 39.6134 28.8585 39.6017 29.0918C39.4384 31.4014 37.6304 33.6294 35.9973 34.9358ZM10.7899 8.23529C12.213 6.74221 13.846 5.49408 15.6541 4.53758C18.3253 3.12615 21.3698 2.35627 24.4376 2.34461C27.5171 2.36794 30.5616 3.12615 33.2328 4.53758C35.0525 5.50575 36.6856 6.74221 38.097 8.23529L33.4661 14.4059C33.4661 14.4059 33.4194 14.3943 33.3961 14.3826C31.4714 13.6594 29.6051 13.2861 27.9137 13.0878C26.9805 12.9128 26.0473 12.8079 25.1841 12.8079C24.9508 12.8079 24.7175 12.8079 24.4959 12.8312C21.2298 12.6796 18.4069 12.5396 15.6774 14.161C15.5724 14.2193 15.4791 14.2893 15.3741 14.3476L10.7899 8.22363V8.23529ZM12.248 22.7812C12.7379 20.5416 14.1376 18.3136 15.8874 16.8789C16.0273 16.7622 16.1556 16.6689 16.2723 16.5756C16.4706 16.4356 16.6689 16.284 16.8789 16.1673C17.2055 15.969 17.5437 15.8174 17.8937 15.6774C17.987 15.6424 18.0803 15.6074 18.1736 15.5724C18.4536 15.4791 18.7335 15.3974 19.0252 15.3274C19.0952 15.3158 19.1768 15.2925 19.2468 15.2691C19.6084 15.1991 19.9817 15.1525 20.3666 15.1175C20.4366 15.1175 20.4949 15.1175 20.5649 15.1175C20.9032 15.0942 21.2415 15.0825 21.5914 15.0825C21.708 15.0825 21.8247 15.0825 21.9413 15.0825C22.233 15.0825 22.5246 15.0825 22.8395 15.1058C22.9445 15.1058 23.0378 15.1058 23.1428 15.1058C23.5511 15.1175 23.9593 15.1408 24.4026 15.1641C25.4058 15.2108 26.4906 15.2691 27.6337 15.3974H27.6571C29.8034 15.6424 31.6814 16.1323 33.4078 16.8905C33.746 17.0422 34.0727 17.1821 34.4109 17.3571L34.5976 17.4504C35.9623 18.162 36.3589 18.0803 37.8054 17.3571C38.9485 16.7855 40.3366 16.4823 41.3748 16.3423C40.9315 17.1821 40.3366 18.2786 39.7767 19.2351C39.6017 19.5267 39.5784 19.8884 39.6834 20.2033C39.8 20.5299 40.045 20.7865 40.3599 20.9032C41.4564 21.3231 42.6112 21.953 43.0428 22.3379C42.7979 22.6412 42.0047 23.2711 39.6017 24.3676C39.3568 24.4843 39.1701 24.5659 39.0768 24.6126C38.6219 24.8575 38.1436 25.0792 37.6771 25.2775C37.5137 25.3474 37.3271 25.4174 37.1405 25.4758C36.9072 25.5691 36.6622 25.6507 36.4173 25.7324C36.114 25.8257 35.799 25.9307 35.4724 26.0123C35.3908 26.0357 35.3208 26.0473 35.2391 26.0707C34.6792 26.2106 34.1077 26.3389 33.5011 26.4439C33.3728 26.4673 33.2561 26.4906 33.1278 26.5023C32.8129 26.5489 32.4979 26.5956 32.1596 26.6306C31.9847 26.6539 31.8214 26.6656 31.6464 26.6772C31.1098 26.7239 30.5499 26.7705 29.9667 26.7939C29.7217 26.7939 29.4768 26.8172 29.2318 26.8289C28.9285 26.8289 28.6136 26.8405 28.2986 26.8522C27.9487 26.8522 27.5987 26.8522 27.2371 26.8522C26.9922 26.8522 26.7472 26.8522 26.5023 26.8522C25.8607 26.8522 25.1958 26.8289 24.5076 26.8055H24.1926C23.4228 26.7705 22.6879 26.7355 21.9997 26.7122C21.7897 26.7122 21.5797 26.7006 21.3698 26.6889H21.1481C17.882 26.5606 15.7707 26.4673 14.4176 26.3739H14.3593C14.1726 26.3506 14.0093 26.3389 13.846 26.3273C13.6827 26.3156 13.5311 26.2923 13.4028 26.2806C12.7612 26.199 12.5862 26.129 12.5746 26.1406C12.0497 25.3824 11.933 24.181 12.248 22.7579V22.7812ZM12.8895 34.9242C11.2565 33.6177 9.44843 31.3898 9.28512 29.0802C9.27345 28.8585 9.5884 28.3219 10.7665 27.6454C11.0582 28.0537 11.3498 28.2986 12.2713 28.4853C12.3879 29.0568 12.5162 29.6167 12.6562 30.165C12.6679 30.2233 12.6796 30.2933 12.7029 30.3516C12.8895 31.1331 13.1111 31.8914 13.3328 32.6496C13.4028 32.8712 13.4728 33.0812 13.5427 33.3028C13.7177 33.8627 13.9044 34.4226 14.1027 34.9708C14.1843 35.1925 14.2543 35.4024 14.3359 35.6241C14.3709 35.729 14.4176 35.8457 14.4526 35.9507C14.0093 35.7174 13.4728 35.3791 12.8895 34.9125V34.9242ZM17.3454 36.8605C17.3104 36.7905 17.2871 36.7089 17.2521 36.6272C16.9838 36.009 16.7272 35.3791 16.4823 34.7375C16.3889 34.4926 16.3073 34.236 16.214 33.991C16.039 33.5127 15.8757 33.0228 15.724 32.5212C15.6307 32.2296 15.5491 31.9497 15.4674 31.6581C15.3274 31.1798 15.1991 30.7132 15.0708 30.2233C14.9892 29.92 14.9192 29.6284 14.8492 29.3251C14.8025 29.1385 14.7675 28.9402 14.7209 28.7535C15.1758 28.7885 15.7007 28.8119 16.3073 28.8469C17.1121 28.8819 18.0803 28.9285 19.2118 28.9752H19.3634C19.6084 28.9868 19.8534 28.9985 20.11 29.0102H20.4366C21.5914 29.0685 22.8979 29.1151 24.4026 29.1618C25.5341 29.2085 26.6072 29.2318 27.6454 29.2318C27.9837 29.2318 28.3103 29.2318 28.6486 29.2201H28.7185C30.6899 29.1851 32.4979 29.0452 34.1776 28.7419C34.1426 28.8935 34.1193 29.0568 34.0843 29.2085C34.0143 29.5001 33.9443 29.7917 33.8744 30.0833C33.746 30.5966 33.6061 31.0982 33.4661 31.5881C33.4428 31.6581 33.4194 31.7397 33.3961 31.8097C33.3378 32.0197 33.2795 32.2296 33.2095 32.4396C33.0462 32.9528 32.8712 33.4544 32.6962 33.956C32.6029 34.201 32.5212 34.4576 32.4279 34.7026C32.1713 35.3674 31.9147 36.0323 31.6231 36.6739C31.5997 36.7322 31.5764 36.7905 31.5531 36.8605C31.5297 36.8955 31.5181 36.9305 31.4948 36.9655C31.2381 37.5371 30.9582 38.0737 30.6549 38.5986C30.5616 38.7502 30.4799 38.8902 30.3866 39.0418C30.095 39.5084 29.7917 39.9517 29.4768 40.3716C29.4301 40.4299 29.3834 40.4999 29.3368 40.5582H29.3251C29.0918 40.8615 28.8585 41.1181 28.6369 41.3631C28.6136 41.3864 28.5902 41.4098 28.5669 41.4331C28.3453 41.6664 28.1353 41.8764 27.937 42.063L27.8904 42.1096C27.6921 42.2846 27.5171 42.4363 27.3421 42.5646L27.3188 42.5879C27.1555 42.7162 27.0038 42.8212 26.8755 42.9145L26.8055 42.9612C26.6889 43.0428 26.5839 43.1128 26.5023 43.1595H22.4313C22.0347 42.9262 21.1015 42.2963 20.0517 41.1181C20.0167 41.0832 19.9817 41.0482 19.9583 41.0015C19.83 40.8499 19.6901 40.6866 19.5501 40.5232C19.1651 40.045 18.8152 39.5201 18.4886 38.9718C18.4303 38.8669 18.3603 38.7735 18.302 38.6569C17.9637 38.0853 17.6604 37.4904 17.3804 36.8605H17.3454ZM29.4651 45.5158L24.4376 51.803L19.4101 45.5158C19.4101 45.5158 19.4218 45.4691 19.4334 45.4458C19.4801 45.3174 19.5151 45.2008 19.5501 45.0725C19.5851 44.9325 19.6201 44.7925 19.6434 44.6526C19.6667 44.5242 19.6901 44.3843 19.7134 44.256C19.7134 44.2093 19.7367 44.1626 19.7367 44.1276C20.1333 44.4659 20.4833 44.7109 20.7749 44.9092H20.7865C20.8799 44.9792 20.9615 45.0375 21.0432 45.0842H21.0665C21.1365 45.1425 21.2065 45.1891 21.2648 45.2241L21.2998 45.2475C21.2998 45.2475 21.3931 45.3058 21.4398 45.3291L21.4864 45.3524C21.4864 45.3524 21.5447 45.3758 21.5564 45.3874L21.6031 45.4108H21.6147C21.7664 45.4924 21.9413 45.5274 22.1047 45.5274H26.7705C26.8405 45.5274 26.8989 45.4924 26.9688 45.4808C27.0738 45.4691 27.1671 45.4574 27.2605 45.4108C27.2605 45.4108 27.3421 45.3758 27.4471 45.3174C27.4821 45.3058 27.5054 45.2825 27.5404 45.2591L27.6104 45.2125C27.6104 45.2125 27.727 45.1425 27.7854 45.1075L27.832 45.0842C27.902 45.0375 27.9837 44.9908 28.077 44.9325L28.1003 44.9092C28.3919 44.7109 28.7302 44.4659 29.1268 44.1276C29.1268 44.186 29.1501 44.2326 29.1501 44.2793C29.1618 44.3959 29.1851 44.5009 29.2085 44.6176C29.2435 44.7809 29.2785 44.9442 29.3134 45.0958C29.3484 45.2125 29.3834 45.3175 29.4184 45.4341C29.4184 45.4691 29.4418 45.4924 29.4534 45.5274L29.4651 45.5158ZM16.109 48.9218C16.3773 48.8169 16.6339 48.6886 16.8789 48.5486C16.9605 48.5019 17.0422 48.4436 17.1238 48.3853C17.2755 48.292 17.4271 48.187 17.5671 48.082C17.6604 48.012 17.742 47.9303 17.8237 47.8487C17.917 47.767 18.0103 47.6971 18.1037 47.6037L23.5394 54.3926C23.761 54.6726 24.0993 54.8359 24.4493 54.8359C24.7992 54.8359 25.1375 54.6726 25.3591 54.3926L30.7949 47.6037C30.8882 47.6971 30.9932 47.7787 31.0865 47.8604C31.1681 47.9303 31.2498 48.012 31.3314 48.082C31.4714 48.1986 31.6347 48.3036 31.7864 48.3969C31.868 48.4436 31.938 48.5019 32.0197 48.5486C32.2646 48.6886 32.5212 48.8169 32.7895 48.9218L34.9358 49.785L27.2838 63.0012H21.6264L13.9743 49.785L16.1206 48.9218H16.109ZM46.6006 67.6671H2.27462V58.4053C2.27462 56.0023 3.70938 53.8794 5.93734 52.9928L11.7697 50.6599L19.9233 64.7509C20.1333 65.1125 20.5182 65.3341 20.9382 65.3341H27.937C28.3569 65.3341 28.7419 65.1125 28.9518 64.7509L37.1055 50.6599L42.9378 52.9928C45.1658 53.8794 46.6006 56.0023 46.6006 58.4053V67.6671Z" fill="#1464C0"/>
</svg>
