<svg width="72" height="72" viewBox="0 0 72 72" fill="none" xmlns="http://www.w3.org/2000/svg">
<path fill-rule="evenodd" clip-rule="evenodd" d="M56.7451 34.3716V34.3555C56.7451 33.9955 56.8767 33.6861 57.1072 33.4669C57.3302 33.2547 57.6174 33.1539 57.8916 33.1458C58.1648 33.1378 58.4555 33.221 58.6854 33.4172C58.9212 33.6183 59.0628 33.9133 59.0675 34.2599L60.3657 54.6505C62.4699 55.2125 64.7148 56.603 66.1043 58.224L66.1107 58.2315C66.6954 58.9415 67.0763 59.751 67.0004 60.5604C66.9347 61.2609 66.5392 61.8555 65.8594 62.3114C66.1985 62.9792 66.3764 63.6917 66.2555 64.3567C66.1233 65.0836 65.6548 65.6551 64.8798 66.0056C65.15 66.9447 65.0353 67.7559 64.4878 68.35C63.9825 68.8983 63.1975 69.1547 62.3295 69.2219C62.2873 69.7153 62.1323 70.14 61.8745 70.4881C61.5337 70.9484 61.0486 71.2271 60.5296 71.3713C59.51 71.6545 58.2735 71.4473 57.3327 70.9769L57.3239 70.9726L55.8516 70.1628L53.8554 69.9867V70.2023L53.8405 70.262C53.7233 70.7307 53.2293 71.3087 52.5065 71.1807L38.5786 69.7879C31.8998 70.5634 26.0682 71.0294 20.2351 71.2627C14.3127 71.4965 8.39157 71.4965 1.70538 71.4965H1.70015C1.03503 71.4965 0.5 70.9615 0.5 70.2963C0.5 68.7156 0.76538 67.7423 1.29377 66.8836C1.54973 66.4677 1.85927 66.092 2.19772 65.7021C2.29008 65.5957 2.38446 65.4883 2.48126 65.3782C2.70457 65.1243 2.94122 64.8551 3.19545 64.5491C3.04565 63.5703 2.84859 62.6 2.64391 61.6241L2.55418 61.1976C2.36364 60.2933 2.17162 59.3819 2.0145 58.4689C1.65019 56.352 1.4649 54.1827 1.90967 51.9184L1.91 51.9167C2.1349 50.7922 2.21147 49.6603 2.21147 48.4362V48.4237L2.21209 48.4113C2.28896 46.8738 2.36693 45.324 2.78017 44.0429C3.17711 42.8125 3.89576 41.7913 5.21522 41.2299L7.19548 27.7489C7.86609 23.1341 9.35177 19.3235 11.8391 16.3648C14.3288 13.4033 17.7897 11.3333 22.342 10.1453C23.3964 9.85635 24.3662 9.68683 25.2178 9.53796C25.3612 9.51289 25.502 9.48828 25.6385 9.46391C26.6044 9.29151 27.3703 9.12803 27.9899 8.82693C28.5847 8.53795 29.0494 8.11884 29.3941 7.40295C29.7486 6.66678 29.9859 5.5958 30.0623 3.99205L30.0627 3.98363L30.2192 1.55893C30.2513 1.20552 30.4198 0.919862 30.6689 0.734146C30.9082 0.555777 31.1981 0.486398 31.4663 0.502173C31.7339 0.517918 32.0165 0.620968 32.2305 0.834949C32.4515 1.05595 32.5664 1.36352 32.5391 1.71101L32.4613 4.12388C32.3431 6.07426 32.0603 7.50045 31.5853 8.55564C31.1012 9.6312 30.4225 10.309 29.5582 10.7603C28.7194 11.1985 27.723 11.4126 26.6357 11.609C26.4215 11.6477 26.2028 11.6858 25.9793 11.7248C25.0491 11.887 24.0348 12.0638 22.9101 12.3564C18.7904 13.463 15.7762 15.3207 13.6276 17.9102C11.4755 20.5039 10.1593 23.8714 9.50717 28.0512L9.50681 28.0534L7.6521 40.7399C9.00945 40.6678 10.5265 40.6887 12.0412 40.7307C12.5497 40.7449 13.0574 40.7613 13.5595 40.7777C14.6353 40.8126 15.6859 40.8467 16.6646 40.855L17.5427 34.1228L17.545 34.1105C17.68 33.3676 18.3434 33.0709 18.8876 33.151C19.1612 33.1912 19.4386 33.3268 19.6328 33.573C19.8322 33.8257 19.9108 34.1533 19.854 34.507L18.9979 40.8564C24.4719 40.8463 29.8731 40.6886 35.2725 40.3136L35.2778 40.3132C36.5331 40.2394 37.7881 40.3018 39.0421 40.5C44.7945 32.0391 48.4904 22.0471 49.7685 11.8869C48.3054 11.5946 47.0478 11.2146 46.1317 10.2179C45.1229 9.12045 44.6115 7.37324 44.4545 4.51222L44.4544 4.50995L44.298 2.08709V2.07098C44.298 1.31275 44.906 0.921635 45.4405 0.891095C45.7103 0.875679 46.0022 0.943347 46.2438 1.12183C46.4955 1.30778 46.6641 1.59425 46.6963 1.94792L46.6976 1.96246L46.7757 4.38178C46.8714 5.98266 47.1177 7.05303 47.4768 7.78977C47.8266 8.50744 48.2922 8.92697 48.8868 9.2159C49.5063 9.51693 50.2722 9.68045 51.2427 9.85281C51.3849 9.87805 51.5309 9.90342 51.6807 9.92943C52.5346 10.0778 53.5089 10.247 54.5739 10.5343C59.0206 11.715 62.7497 13.5378 65.4688 16.3071C68.1962 19.0848 69.8707 22.7776 70.2681 27.623C71.5146 41.8806 71.5146 56.0569 71.5146 70.2856V70.2963C71.5146 70.6557 71.3834 70.9665 71.1507 71.1855C70.925 71.3979 70.6332 71.4965 70.3534 71.4965C70.0735 71.4965 69.7818 71.3979 69.5561 71.1855C69.3234 70.9665 69.1921 70.6557 69.1921 70.2963C69.1921 56.0566 69.1918 41.9977 67.9493 27.7868C67.6449 24.3238 66.6212 21.5202 64.9083 19.2644C63.3064 17.1548 61.0802 15.496 58.2115 14.2294C56.9662 24.8109 53.1034 35.1446 47.1157 43.9655C50.2606 46.3786 52.5438 49.9374 53.4521 53.8033C53.7942 53.831 54.1413 53.8569 54.4924 53.8831C55.6427 53.969 56.8354 54.058 58.0285 54.2267L56.7451 34.3716ZM7.98932 43.1015C7.15909 43.0836 6.57608 43.2337 6.15656 43.4767C5.74158 43.7172 5.4449 44.0728 5.22652 44.5431C4.77086 45.5246 4.69059 46.9101 4.61117 48.5384L4.61083 48.5452L4.6099 48.5594C4.53269 49.7948 4.45329 51.0653 4.21423 52.3403L4.21387 52.3422C3.87973 54.0871 4.00628 55.9266 4.30417 57.8101C4.45292 58.7506 4.64285 59.6935 4.83618 60.637L4.88524 60.8763C4.99879 61.4296 5.11244 61.9835 5.21738 62.5332L8.5197 59.4252L8.52502 59.4204C8.78908 59.1857 9.10086 59.0727 9.41469 59.0908C9.72079 59.1084 9.98959 59.2486 10.1809 59.4482C10.5713 59.8556 10.669 60.5565 10.1443 61.0812L10.1376 61.0879C9.7354 61.4752 9.22309 61.9304 8.66548 62.4259L8.65782 62.4327C8.47751 62.5929 8.29249 62.7573 8.10495 62.925C7.32767 63.6198 6.4945 64.3812 5.72405 65.1708C4.95212 65.9619 4.25511 66.7693 3.74427 67.5535C3.36689 68.1328 3.10645 68.6764 2.98146 69.174C9.20056 69.1738 14.6959 69.1669 20.1165 68.941C25.4182 68.7201 30.6465 68.3597 36.4659 67.6615C35.9891 67.0899 35.5686 66.4869 35.1549 65.8934C34.9421 65.5882 34.731 65.2854 34.515 64.9909L34.5084 64.9818L34.5022 64.9725C34.0922 64.3576 34.3534 63.6997 34.7859 63.3793C35.0026 63.2188 35.285 63.1202 35.586 63.1469C35.8979 63.1746 36.1867 63.3334 36.402 63.6103L36.4132 63.6247L36.4233 63.6399C36.8739 64.3158 37.5981 65.2316 38.291 66.0304C38.6363 66.4285 38.9692 66.792 39.2512 67.0776C39.4786 67.3079 39.6532 67.4668 39.7668 67.5559L50.3832 68.6176C45.4875 65.488 43.2867 59.9368 43.2867 54.193C43.2867 53.8381 43.4294 53.5378 43.6667 53.333C43.8938 53.1371 44.1801 53.0512 44.448 53.0512C44.7159 53.0512 45.0021 53.1371 45.2292 53.333C45.4666 53.5378 45.6092 53.8381 45.6092 54.193C45.6092 59.1527 47.4399 63.8999 51.5384 66.6078C51.5498 65.6616 51.5769 64.73 51.6036 63.8117C51.6782 61.2506 51.7497 58.7929 51.4683 56.4104C51.0601 52.9553 49.9104 49.7462 46.9385 46.8494C43.8554 43.8416 39.7958 42.4097 35.4194 42.7115C26.2957 43.3354 17.1764 43.3351 7.98932 43.1015ZM54.4748 54.3834C54.4747 54.3834 54.4748 54.3834 54.4748 54.3834V54.3834ZM45.3425 43.3018C45.3425 43.3017 45.3426 43.3018 45.3425 43.3018V43.3018ZM47.1805 39.4726L45.1805 42.6241C44.0437 41.9686 42.8102 41.4129 41.4802 40.9945C42.1895 39.9513 42.8572 38.8708 43.5152 37.7953L47.1805 39.4726ZM48.2528 37.578L44.623 35.7005C48.4767 28.457 51.0293 20.5028 52.0733 12.3206L52.2133 12.3499C52.7566 12.4632 53.3354 12.5838 53.924 12.7444C54.6406 12.9398 55.2911 13.1323 55.9283 13.3683C54.9823 21.8018 52.377 30.0816 48.2528 37.578ZM54.4736 68.2088C53.9707 68.1759 53.5288 68.147 53.3554 68.1181C53.3554 66.8656 53.3927 65.5759 53.4303 64.2742C53.5142 61.3717 53.5998 58.4102 53.2776 55.6711C53.7255 55.7084 54.1912 55.7398 54.6676 55.7718C57.17 55.9403 59.9646 56.1284 61.9905 57.3048C62.5351 57.6159 67.2805 61.6612 64.2466 61.0389L62.6907 59.483C62.0683 58.8606 61.1348 59.872 61.7571 60.4943C61.8261 60.5564 61.9006 60.6227 61.9793 60.6928C62.7886 61.4139 64.0477 62.5357 64.4021 63.5283C64.6355 64.1506 64.091 64.6174 63.6242 64.4618L61.446 62.517C60.7458 61.9724 59.8901 62.9059 60.5902 63.5283L62.5351 65.3175C63.3908 66.1733 63.7798 68.1181 61.2904 67.418L59.7345 66.0177C59.0344 65.3953 58.1786 66.4067 58.801 67.029L60.4346 68.4293C60.8236 69.9852 59.1899 69.8296 58.1786 69.285L56.5449 68.4293C56.3494 68.3315 55.3242 68.2645 54.4736 68.2088Z" fill="#1464C0"/>
</svg>
