<svg width="70" height="70" viewBox="0 0 70 70" fill="none" xmlns="http://www.w3.org/2000/svg">
<path d="M69.4152 12.6598C67.7591 5.20732 61.2628 0 53.6311 0C49.4567 0 46.0591 3.39756 46.0591 7.57195C46.0591 9.59512 46.8445 11.4988 48.2787 12.9244L50.3189 14.9732H47.3738C41.253 14.9732 36.2762 19.95 36.2762 26.0707V39.2683C36.2762 39.9768 35.7043 40.5488 34.9957 40.5488C34.2872 40.5488 33.7152 39.9768 33.7152 39.2683V26.0707C33.7152 19.95 28.7384 14.9732 22.6177 14.9732H19.664L21.7128 12.9244C23.1469 11.4988 23.9323 9.59512 23.9323 7.57195C23.9323 3.39756 20.5348 0 16.3604 0C8.72012 0 2.23232 5.20732 0.576219 12.6598C-0.192073 16.1256 -0.192073 19.7878 0.576219 23.2537C2.23232 30.7061 8.72012 35.9134 16.3604 35.9134C20.5348 35.9134 23.9323 32.5159 23.9323 28.3415C23.9323 26.3183 23.1469 24.4146 21.7128 22.989L19.6726 20.9488H23.4713C25.8274 20.9488 27.7396 22.861 27.7396 25.2171V40.6085C24.1372 41.0695 21.3372 44.1598 21.3372 47.8817C21.3372 51.928 23.3091 55.7524 26.6043 58.1085L27.7396 58.9195V69.1463C27.7396 69.6159 28.1238 70 28.5933 70H41.3982C41.8677 70 42.2518 69.6159 42.2518 69.1463V58.9195L43.3872 58.1085C46.6823 55.761 48.6543 51.9366 48.6543 47.8817C48.6543 44.1512 45.8543 41.0695 42.2518 40.6085V25.2171C42.2518 22.861 44.164 20.9488 46.5201 20.9488H50.3189L48.2787 22.989C46.8445 24.4232 46.0591 26.3183 46.0591 28.3415C46.0591 32.5159 49.4567 35.9134 53.6311 35.9134C61.2713 35.9134 67.7591 30.7061 69.4152 23.2537C70.1835 19.7878 70.1835 16.1256 69.4152 12.6598ZM67.7506 22.8866C66.2653 29.5537 60.4604 34.2146 53.6311 34.2146C50.3957 34.2146 47.7665 31.5854 47.7665 28.35C47.7665 26.7793 48.3726 25.311 49.4823 24.2012L52.0177 21.6659C52.2396 21.4439 52.4274 21.2049 52.6067 20.9488H54.2457C56.1067 20.9488 57.6262 22.4683 57.6262 24.3293C57.6262 24.7988 58.0104 25.1829 58.4799 25.1829C58.9494 25.1829 59.3335 24.7988 59.3335 24.3293C59.3335 21.5207 57.0543 19.2415 54.2457 19.2415H46.5287C43.2335 19.2415 40.553 21.922 40.553 25.2171V41.0439C40.5018 41.1549 40.4762 41.2744 40.4762 41.4024C40.4762 41.872 40.8604 42.2561 41.3299 42.2561C44.4287 42.2561 46.9555 44.7829 46.9555 47.8817C46.9555 51.3817 45.2567 54.6854 42.4055 56.7171L40.9116 57.7841C40.6896 57.9463 40.553 58.2024 40.553 58.4756V68.2927H29.4555V58.4756C29.4555 58.2024 29.3189 57.9378 29.097 57.7841L27.603 56.7171C24.7518 54.6854 23.053 51.3817 23.053 47.8817C23.053 44.7829 25.5799 42.2561 28.6787 42.2561C29.1482 42.2561 29.5323 41.872 29.5323 41.4024C29.5323 41.2744 29.5067 41.1549 29.4555 41.0439V25.2171C29.4555 21.922 26.775 19.2415 23.4799 19.2415H15.7628C12.9543 19.2415 10.675 21.5207 10.675 24.3293C10.675 24.7988 11.0591 25.1829 11.5287 25.1829C11.9982 25.1829 12.3823 24.7988 12.3823 24.3293C12.3823 22.4683 13.9018 20.9488 15.7628 20.9488H17.3933C17.5726 21.2049 17.7604 21.4439 17.9823 21.6659L20.5177 24.2012C21.6274 25.311 22.2335 26.7793 22.2335 28.35C22.2335 31.5854 19.6043 34.2146 16.3689 34.2146C9.53963 34.2146 3.73476 29.5537 2.24939 22.8866C1.53232 19.6598 1.53232 16.2537 2.24939 13.0268C3.73476 6.35976 9.53963 1.69878 16.3689 1.69878C19.6043 1.69878 22.2335 4.32805 22.2335 7.56342C22.2335 9.13415 21.6274 10.6024 20.5177 11.7122L17.9823 14.2476C17.7604 14.4695 17.5726 14.7085 17.3933 14.9646H15.8311C13.9274 14.9646 12.3823 13.4195 12.3823 11.5159C12.3823 11.0463 11.9982 10.6622 11.5287 10.6622C11.0591 10.6622 10.675 11.0463 10.675 11.5159C10.675 14.3585 12.9884 16.672 15.8311 16.672H22.6262C27.8079 16.672 32.0165 20.8805 32.0165 26.0622V39.2598C32.0165 40.9073 33.3567 42.2476 35.0043 42.2476C36.6518 42.2476 37.9921 40.9073 37.9921 39.2598V26.0622C37.9921 20.8805 42.2006 16.672 47.3823 16.672H54.1774C57.0201 16.672 59.3335 14.3585 59.3335 11.5159C59.3335 11.0463 58.9494 10.6622 58.4799 10.6622C58.0104 10.6622 57.6262 11.0463 57.6262 11.5159C57.6262 13.4195 56.0811 14.9646 54.1774 14.9646H52.6067C52.4274 14.7085 52.2396 14.4695 52.0177 14.2476L49.4823 11.7122C48.3726 10.6024 47.7665 9.13415 47.7665 7.56342C47.7665 4.32805 50.3957 1.69878 53.6311 1.69878C60.4604 1.69878 66.2653 6.35976 67.7506 13.0268C68.4677 16.2537 68.4677 19.6598 67.7506 22.878V22.8866Z" fill="#1464C0"/>
</svg>
