<svg width="70" height="64" viewBox="0 0 70 64" fill="none" xmlns="http://www.w3.org/2000/svg">
<path fill-rule="evenodd" clip-rule="evenodd" d="M49.1278 34.4874H4.6755C3.85535 34.4874 3.24023 33.8723 3.24023 33.0931V1.39426C3.24023 0.615114 3.85535 0 4.6755 0H49.1278C49.9069 0 50.563 0.615114 50.563 1.39426V33.0111C50.604 33.8313 49.9069 34.4874 49.1278 34.4874ZM5.16759 32.519H48.5536V1.92736H5.16759V32.519Z" fill="#1464C0"/>
<path fill-rule="evenodd" clip-rule="evenodd" d="M26.9017 23.2925C22.1039 23.2925 17.552 21.3242 14.3944 17.7975C14.1074 17.4284 14.0254 16.9364 14.3124 16.5263L17.757 11.5233C17.9211 11.2773 18.2081 11.1133 18.4952 11.0723C18.7412 11.0723 19.1103 11.1953 19.2743 11.4003C21.2017 13.5737 23.8672 14.7219 26.8197 14.7219C29.6903 14.7219 32.4788 13.5327 34.3241 11.4003C34.5702 11.1953 34.8572 11.0723 35.1443 11.0723C35.4313 11.0723 35.7184 11.2363 35.8824 11.4823L39.3271 16.4853C39.6141 16.8543 39.5731 17.3874 39.286 17.7155C36.2105 21.3242 31.6586 23.2925 26.9017 23.2925ZM16.4448 17.0594C19.1513 19.7659 22.965 21.3652 26.9017 21.3652C30.7975 21.3652 34.5702 19.8069 37.3587 17.0594L35.0213 13.6968C32.8068 15.6651 29.8953 16.7723 26.9017 16.7723C23.8262 16.7723 20.9966 15.6651 18.7002 13.6968L16.4448 17.0594Z" fill="#1464C0"/>
<path fill-rule="evenodd" clip-rule="evenodd" d="M11.2361 42.4019C10.703 42.4019 10.2109 41.9508 10.2109 41.3767V33.4622C10.2109 32.8881 10.703 32.437 11.2361 32.437C11.8102 32.437 12.2613 32.8881 12.2613 33.4622V41.3767C12.2203 41.9508 11.7692 42.4019 11.2361 42.4019Z" fill="#1464C0"/>
<path fill-rule="evenodd" clip-rule="evenodd" d="M42.5252 42.4019C41.9511 42.4019 41.5 41.9508 41.5 41.3767V33.4622C41.5 32.8881 41.9511 32.437 42.5252 32.437C43.0993 32.437 43.5504 32.8881 43.5504 33.4622V41.3767C43.5504 41.9508 43.0993 42.4019 42.5252 42.4019Z" fill="#1464C0"/>
<path fill-rule="evenodd" clip-rule="evenodd" d="M52.4077 58.3947H1.35325C0.615114 58.3947 0 57.7386 0 57.0004V41.7866C0 41.0485 0.615114 40.3923 1.35325 40.3923H52.4077C53.1459 40.3923 53.802 41.0485 53.802 41.7866V57.0824C53.802 57.7386 53.1459 58.3947 52.4077 58.3947ZM1.96837 56.3853H51.7926V42.4017H1.96837V56.3853Z" fill="#1464C0"/>
<path fill-rule="evenodd" clip-rule="evenodd" d="M30.5092 52.2845C28.9509 52.2845 27.6797 51.0543 27.6797 49.455C27.6797 47.8557 28.9509 46.6255 30.5092 46.6255C32.1085 46.6255 33.3797 47.8557 33.3797 49.455C33.3797 51.0543 32.1085 52.2845 30.5092 52.2845ZM30.5092 48.5939C30.0581 48.5939 29.6891 49.0039 29.6891 49.455C29.6891 49.9061 30.0581 50.3162 30.5092 50.3162C31.0013 50.3162 31.3704 49.9061 31.3704 49.455C31.3704 49.0039 31.0423 48.5939 30.5092 48.5939Z" fill="#1464C0"/>
<path fill-rule="evenodd" clip-rule="evenodd" d="M38.4243 52.2848C36.825 52.2848 35.5947 51.0546 35.5947 49.4553C35.5947 47.856 36.825 46.6257 38.4243 46.6257C40.0235 46.6257 41.2948 47.856 41.2948 49.4553C41.2948 51.0546 39.9825 52.2848 38.4243 52.2848ZM38.4243 48.5941C37.9732 48.5941 37.5631 49.0042 37.5631 49.4553C37.5631 49.9063 37.9732 50.3164 38.4243 50.3164C38.8753 50.3164 39.2854 49.9063 39.2854 49.4553C39.2854 49.0042 38.8753 48.5941 38.4243 48.5941Z" fill="#1464C0"/>
<path fill-rule="evenodd" clip-rule="evenodd" d="M46.2973 52.2845C44.698 52.2845 43.4268 51.0543 43.4268 49.455C43.4268 47.8557 44.698 46.6255 46.2973 46.6255C47.8556 46.6255 49.1268 47.8557 49.1268 49.455C49.1268 51.0543 47.8146 52.2845 46.2973 52.2845ZM46.2973 48.5939C45.8052 48.5939 45.4361 49.0039 45.4361 49.455C45.4361 49.9061 45.8052 50.3162 46.2973 50.3162C46.7484 50.3162 47.1174 49.9061 47.1174 49.455C47.1174 49.0039 46.7484 48.5939 46.2973 48.5939Z" fill="#1464C0"/>
<path fill-rule="evenodd" clip-rule="evenodd" d="M23.2932 50.4803H5.70097C5.12686 50.4803 4.67578 50.0292 4.67578 49.4551C4.67578 48.881 5.12686 48.4299 5.70097 48.4299H23.2932C23.8673 48.4299 24.3184 48.881 24.3184 49.4551C24.3184 50.0292 23.8673 50.4803 23.2932 50.4803Z" fill="#1464C0"/>
<path fill-rule="evenodd" clip-rule="evenodd" d="M55.6465 63.6026H33.8305C29.4427 63.6026 25.916 60.814 25.916 57.3694C25.916 56.7953 26.3671 56.3442 26.9412 56.3442C27.5153 56.3442 27.9664 56.7953 27.9664 57.3694C27.9664 59.6248 30.7139 61.6342 33.8715 61.6342H55.7286C58.8861 61.6342 61.6336 59.6658 61.6336 57.3694V32.2727C61.6336 31.6986 62.0847 31.2476 62.6588 31.2476C63.2329 31.2476 63.684 31.6986 63.684 32.2727V57.4104C63.561 60.814 59.9933 63.6026 55.6465 63.6026Z" fill="#1464C0"/>
<path fill-rule="evenodd" clip-rule="evenodd" d="M62.5371 33.2572C59.8306 33.2572 57.6162 31.0428 57.6162 28.2953L57.5752 22.5132C57.5752 21.9391 58.0673 21.488 58.6004 21.488C59.1745 21.488 59.6256 21.9391 59.6256 22.5132V28.2953C59.6256 29.8946 61.0198 31.2478 62.6191 31.2478C64.1774 31.2478 65.5717 29.8946 65.5717 28.2953V22.5132C65.5717 21.9391 66.0228 21.488 66.5969 21.488C67.13 21.488 67.6221 21.9391 67.6221 22.5132V28.2953C67.54 31.0428 65.2846 33.2572 62.5371 33.2572Z" fill="#1464C0"/>
<path fill-rule="evenodd" clip-rule="evenodd" d="M68.9748 23.4564H56.1805C55.6064 23.4564 55.1553 23.0053 55.1553 22.4312C55.1553 21.8571 55.6064 21.406 56.1805 21.406H68.9748C69.5489 21.406 70 21.8571 70 22.4312C70 23.0053 69.4669 23.4564 68.9748 23.4564Z" fill="#1464C0"/>
</svg>
